<svg xmlns="http://www.w3.org/2000/svg" xmlns:xlink="http://www.w3.org/1999/xlink" width="110" height="39" viewBox="0 0 110 39">
    <defs>
        <linearGradient id="a" x1="0%" y1="50%" y2="50%">
            <stop offset="0%" stop-color="#F00"/>
            <stop offset="100%" stop-color="#00BAFF"/>
        </linearGradient>
        <path id="b" d="M19.47 3.943c8.575 0 15.526 6.952 15.526 15.527S28.045 34.996 19.47 34.996 3.943 28.045 3.943 19.47 10.895 3.943 19.47 3.943zm-.247 3.796c-6.342 0-11.484 5.142-11.484 11.484 0 6.343 5.142 11.485 11.484 11.485 6.343 0 11.485-5.142 11.485-11.485 0-6.342-5.142-11.484-11.485-11.484z"/>
        <filter id="c" width="116.1%" height="116.1%" x="-8.1%" y="-8.1%" filterUnits="objectBoundingBox">
            <feGaussianBlur in="SourceAlpha" result="shadowBlurInner1" stdDeviation="2.5"/>
            <feOffset in="shadowBlurInner1" result="shadowOffsetInner1"/>
            <feComposite in="shadowOffsetInner1" in2="SourceAlpha" k2="-1" k3="1" operator="arithmetic" result="shadowInnerInner1"/>
            <feColorMatrix in="shadowInnerInner1" values="0 0 0 0 0 0 0 0 0 0 0 0 0 0 0 0 0 0 0.130717844 0"/>
        </filter>
    </defs>
    <g fill="none" fill-rule="nonzero">
        <path fill="#FFF" d="M41.908 13.396c0 1.378 1.149 2.498 2.527 2.498 1.378 0 2.526-1.12 2.526-2.498 0-1.378-1.148-2.498-2.526-2.498s-2.527 1.12-2.527 2.498zM42.253 32V17.875h4.364V32h-4.364zM92.339 13.645c0 1.378 1.148 2.498 2.526 2.498s2.527-1.12 2.527-2.498c0-1.378-1.149-2.497-2.527-2.497-1.378 0-2.526 1.12-2.526 2.497zm.344 18.605h4.364V18.124h-4.364V32.25zm9.73-1.091c-.747-.804-1.235-1.981-1.235-4.22v-5.197H98.88v-3.618h2.297V14.45l4.364-.746v4.421h3.732v3.618h-3.732v4.737c0 1.378.315 2.412 1.636 2.412.718 0 1.522-.288 2.096-.575v3.474c-.66.43-1.952.775-3.187.775-1.435 0-2.785-.459-3.675-1.406zM51.927 37.541c1.206.66 2.727 1.091 4.364 1.091 4.278 0 6.804-2.641 6.804-6.632V18.334l-1.636.287c-1.177-.632-2.555-1.091-4.163-1.091-4.536 0-7.15 3.503-7.15 7.465 0 4.134 2.93 7.034 6.777 7.034 1.75 0 3.33-.632 4.42-1.58l.058.03v1.55c0 3.158-1.98 5.053-5.11 5.053-1.522 0-3.015-.488-4.364-1.35v1.81zM51.87 24.88c0-3.244 2.095-5.8 5.397-5.8 1.608 0 3.13.546 4.134 1.206v8.498c-1.062 1.091-2.641 1.723-4.249 1.723-3.158 0-5.282-2.383-5.282-5.627zm26.917.517c.029-.345.058-.776.058-1.206 0-4.192-2.843-6.632-6.26-6.632-3.818 0-6.976 3.014-6.976 7.378 0 4.393 3.216 7.379 7.551 7.379 1.751 0 3.56-.517 4.852-1.32v-1.838c-1.292.947-2.842 1.636-4.737 1.636-3.33 0-5.713-2.067-6-5.397h11.512zm-6.259-6.317c1.895 0 4.565 1.12 4.652 4.91h-9.848c.46-3.273 2.842-4.91 5.196-4.91zm10.697 12.03c-.718-.833-1.005-2.096-1.005-3.933v-7.81h-2.814v-1.492h2.814v-3.962l1.694-.288v4.25h4.565v1.492h-4.565v7.523c0 2.124.316 3.875 2.555 3.875.747 0 1.464-.2 2.01-.516v1.607c-.546.259-1.378.46-2.24.46-1.033 0-2.21-.287-3.014-1.206z"/>
        <path fill="#EEE" d="M19.223.25c10.617 0 19.224 8.606 19.224 19.223 0 10.617-8.607 19.223-19.224 19.223C8.607 38.696 0 30.09 0 19.473 0 8.856 8.607.25 19.223.25zm0 7.393c-6.533 0-11.83 5.297-11.83 11.83s5.297 11.83 11.83 11.83c6.534 0 11.83-5.297 11.83-11.83s-5.296-11.83-11.83-11.83z"/>
        <g transform="translate(0 .25)">
            <use fill="url(#a)" xlink:href="#b"/>
            <use fill="#000" filter="url(#c)" xlink:href="#b"/>
        </g>
    </g>
</svg>
