<svg xmlns="http://www.w3.org/2000/svg" xmlns:xlink="http://www.w3.org/1999/xlink" width="155" height="179"><defs><linearGradient id="a" x1="50%" x2="50%" y1="0%" y2="100%"><stop offset="0%" stop-color="#8FA1B0"/><stop offset="100%" stop-color="#5F7083"/></linearGradient><path id="b" d="M-9.228 44.648c3.617-8.16.542-12.96 8.911-24.646 1.351-1.886 7.769-5.463 11.891-9.996C15.598 5.582 17.331.176 18.41.242c2.32.143 8.407 4.677 10.587 6.001 1.733 1.052 6.783 5.59 15.325 9.578 8.542 3.989 13.88 13.72 21.39 28.827-7.117-1.448-11.33.209-12.641 4.97.027-10.149-.979-13.072-3.017-8.77-2.039 4.301-1.033 22.294 3.017 53.978H-2.524l8.322-45.207c-12.43 2.126-17.438.47-15.026-4.97z"/><linearGradient id="d" x1="55.396%" x2="35.95%" y1="60.12%" y2="46.978%"><stop offset="0%" stop-color="#929FAA"/><stop offset="100%" stop-color="#D4DBE0"/></linearGradient><linearGradient id="e" x1="56.289%" x2="33.627%" y1="60.12%" y2="46.978%"><stop offset="0%" stop-color="#B8C6D1"/><stop offset="100%" stop-color="#E3E7EB"/></linearGradient><linearGradient id="f" x1="57.332%" x2="30.911%" y1="60.12%" y2="46.978%"><stop offset="0%" stop-color="#F8F9FA"/><stop offset="100%" stop-color="#EFF1F3"/></linearGradient><linearGradient id="g" x1="69.16%" x2="27.977%" y1="48.306%" y2="55.779%"><stop offset="0%" stop-color="#F1F3F7"/><stop offset="100%" stop-color="#D6DCE2"/></linearGradient><linearGradient id="h" x1="100%" x2="0%" y1="100%" y2="100%"><stop offset="0%" stop-color="#D9DFE6"/><stop offset="100%" stop-color="#C1CAD5"/></linearGradient><linearGradient id="i" x1="100%" x2="0%" y1="100%" y2="100%"><stop offset="0%" stop-color="#D9DFE6"/><stop offset="100%" stop-color="#C1CAD5"/></linearGradient></defs><g fill="none" fill-rule="evenodd"><path d="M14.769 9.712L11.742 3.86a1.23 1.23 0 0 0-1.672-.53 1.262 1.262 0 0 0-.522 1.693l3.027 5.852a1.23 1.23 0 0 0 1.671.53c.606-.322.84-1.08.523-1.693zm-6.888 5.449l-5.146-4.114a1.23 1.23 0 0 0-1.742.196 1.262 1.262 0 0 0 .211 1.76l5.146 4.114a1.23 1.23 0 0 0 1.742-.197 1.262 1.262 0 0 0-.21-1.759zm14.614-6.615l.304-6.581A1.23 1.23 0 0 0 21.616.67a1.262 1.262 0 0 0-1.299 1.204l-.304 6.582a1.23 1.23 0 0 0 1.183 1.294 1.262 1.262 0 0 0 1.299-1.205z" fill="url(#a)" fill-rule="nonzero" opacity=".5" transform="rotate(87 53.514 55.459)"/><path fill="#96DBF7" fill-rule="nonzero" d="M39.772 99.448c3.617-8.16.542-12.96 8.911-24.646 1.351-1.886 7.769-5.463 11.891-9.996 4.024-4.424 5.757-9.83 6.836-9.764 2.32.143 8.407 4.677 10.587 6.001 1.733 1.052 6.783 5.59 15.325 9.578 8.542 3.989 13.88 13.72 21.39 28.827-7.117-1.448-11.33.209-12.641 4.97.027-10.149-.979-13.072-3.017-8.77-2.039 4.301-1.033 22.294 3.017 53.978H46.476l8.322-45.207c-12.43 2.126-17.438.47-15.026-4.97z"/><g transform="translate(49 54.8)"><mask id="c" fill="#fff"><use xlink:href="#b"/></mask><path fill="#0FA7E6" fill-rule="nonzero" d="M4.3 14.147c16.782-.344 25.553-4.068 26.313-11.173.76-7.105-3.625-9.37-13.156-6.797L4.3 14.147z" mask="url(#c)" opacity=".185" style="mix-blend-mode:multiply" transform="rotate(10 17.499 4.65)"/></g><path fill="#96DBF7" fill-rule="nonzero" d="M94.825 97.616c11.018 15.088 19.837 25.87 24.684 25.273 6.5.021 17.103-11.351 28.517-21.415l-1.343-10.952c-4.788 9.784-17.879 14.058-23.562 18.239-2.433-.563-8.346-5.018-19.79-26.454l-8.506 15.31z"/><g fill-rule="nonzero"><path fill="#FBACA6" d="M71.862 15.615c8.57-.6 15.352 5.978 15.15 14.69l-.392 16.862c-.202 8.712-5.304 16.12-11.395 16.546-6.09.426-12.174-6.2-13.587-14.799L58.904 32.27c-1.413-8.599 4.388-16.056 12.958-16.655z"/><path fill="#FF7C7C" d="M84.56 19.113l.634 8.628c-2.606 1.576-5.494 2.845-8.232 2.558-8.543-.898-5.07.005-6.764 1.992L66.09 45.336c-.076 6.476 2.592 14.28 6.46 18.123-5.106-1.314-9.707-7.211-10.912-14.544L58.904 32.27c-1.413-8.6 4.388-16.056 12.958-16.655 8.57-.6 7.82 1.961 12.698 3.497z" opacity=".275" style="mix-blend-mode:multiply"/><path fill="#494653" d="M61.636 50.146c-1.882-2.007-3.246-4.357-4.09-7.049-2.608-8.309-3.616-18.01-3.219-22.185.925-9.72 12.53-14.65 23.23-9.72 10.7 4.929 12.822 14.311 10.234 15.885-2.588 1.573-19.433 2.215-22.794-1.574-3.612 1.05-4.733 9.263-3.36 24.643z"/><path fill="#FB948F" d="M61.625 40.505c2.21.232 3.871-.905 4.121-3.285.25-2.38-1.338-4.499-3.547-4.73-2.21-.233-3.47-.346-3.72 2.034s.937 5.749 3.146 5.98z"/></g><g fill-rule="nonzero"><path fill="url(#d)" d="M7.8 0c10.875 10.988 20.409 17.623 28.602 19.907C44.595 22.19 59.1 25.779 79.92 30.674v91.027c-19.063-2.678-33.569-5.62-43.518-8.826-9.95-3.206-15.884-8.489-17.802-15.848L7.8 0z" transform="translate(0 54.8)"/><path fill="url(#e)" d="M3.6 2.4c13.675 10.588 24.609 17.023 32.802 19.307 8.193 2.283 22.699 5.272 43.518 8.967v91.027c-19.063-2.678-33.569-5.62-43.518-8.826-9.95-3.206-17.284-7.689-22.002-13.448L3.6 2.4z" transform="translate(0 54.8)"/><path fill="url(#f)" d="M0 7.8c16.075 8.188 28.209 13.423 36.402 15.707 8.193 2.283 22.699 4.472 43.518 6.567v93.427c-19.063-2.678-33.569-5.62-43.518-8.826-9.95-3.206-18.484-7.689-25.602-13.448L0 7.8z" transform="translate(0 54.8)"/><path fill="url(#g)" d="M154.2 10.674l-7.92 93.427c-14.738 1.77-25.913 3.759-33.524 5.964-7.61 2.205-18.756 6.684-33.436 13.436V30.074c12.947-7.545 24.093-12.528 33.436-14.948 9.344-2.421 23.158-3.905 41.444-4.452zm-17.054 30.584l-7.555.98-4.54 1.787-3.72-.718c-2.335.42-3.981.737-4.94.951-.582.13-2.426 1.614-5.53 4.45l-4.985-.262-2.839.166-2.81 2.552-3.99 2.243.528 4.014-.65 2.857-.65 2.803 3.02 2.899-2.774 5.184.587 2.878-1.318 2.345 1.995 3.206-1.282 3.874-.057 3.732 4.59-1.64 2.464-.223 2.205-1.337 2.688-2.063 3.416.119 1.956.422 3.436-2.018 2.77.942 2.96-1.624 1.854-.82 3.778 1.553 3.223-1.592 4.201-.693.966-2.71-1.48-3.233 1.63-3.728-1.047-2.888.803-3.805 1.333-2.5-1.01-3.578-1.01-3.57 1.384-3.45.4-7.505z" transform="translate(0 54.8)"/><path fill="url(#h)" d="M93 36.431c5.308-2.826 11.965-5.379 19.97-7.659a101.92 101.92 0 0 1 24.618-3.84v8.151c-8.243.054-15.944.972-23.105 2.756-7.161 1.784-14.322 4.768-21.483 8.952v-8.36z" transform="translate(0 54.8)"/><path fill="url(#i)" d="M94.8 97.031c3.32-2.438 8.982-4.798 16.988-7.078 8.006-2.28 15.829-3.487 23.47-3.62l-.6 6.951c-6.325.06-13.068.981-20.229 2.765-7.16 1.784-13.704 4.698-19.629 8.742v-7.76z" transform="translate(0 54.8)"/><path fill="#D1D9E0" d="M15.073 88.594c4.686 3.074 7.618 5.487 15.992 8.635 12.234 4.6 24.575 7.03 36.8 6.655l-.199-5.905c-11.091.34-22.624-1.988-33.98-6.257-7.844-2.948-15.532-6.6-19.783-9.388l1.17 6.26zm1.228 13.524c4.791 2.908 7.804 5.197 16.284 8.051 12.387 4.17 23.606 6.21 35.811 5.408l-.406-5.936c-11.073.727-21.48-1.198-32.978-5.067-7.942-2.673-15.153-6.075-19.5-8.713l.79 6.257zm1.392 12.48c4.73 2.822 9.036 5.67 17.371 8.372 12.177 3.947 21.778 4.552 33.694 3.533l-.523-5.95c-10.81.925-19.59.443-30.892-3.221-7.807-2.53-16.247-6.426-20.54-8.986l.89 6.252zm1.058 8.163l2.853 27.956c6.985 4.193 14.721 6.72 23.208 7.583-1.446-9.858-1.446-14.782-1.446-26.539-9.702-1.488-17.907-4.488-24.615-9z" opacity=".6"/></g><g fill="#FB948F" fill-rule="nonzero" transform="translate(147 87.2)"><rect width="6.171" height="2.667" x=".514" y="1.067" rx="1.333" transform="rotate(14 3.6 2.4)"/><rect width="6.171" height="2.667" x=".514" y="4.267" rx="1.333" transform="rotate(14 3.6 5.6)"/><rect width="6.171" height="2.667" x=".514" y="7.467" rx="1.333" transform="rotate(14 3.6 8.8)"/><rect width="6.171" height="2.667" x=".514" y="10.667" rx="1.333" transform="rotate(14 3.6 12)"/></g><g fill="#FB948F" fill-rule="nonzero" transform="rotate(170 -.023 58.679)"><rect width="6" height="2.4" x=".6" y="1.2" rx="1.2" transform="rotate(14 3.6 2.4)"/><rect width="6" height="2.4" x=".6" y="4.2" rx="1.2" transform="rotate(14 3.6 5.4)"/><rect width="6" height="2.4" x=".6" y="7.2" rx="1.2" transform="rotate(14 3.6 8.4)"/><rect width="6" height="2.4" x=".704" y="10.209" rx="1.2" transform="rotate(14 3.704 11.41)"/></g></g></svg>