<svg xmlns="http://www.w3.org/2000/svg" width="68" height="68" viewBox="0 0 68 68">
    <g fill="none" fill-rule="evenodd">
        <circle cx="34" cy="34" r="34" fill="#E2F3E0"/>
        <path fill="#53BB4A" d="M44.6 21.674c-.873.112-1.745.15-2.618.15-2.255 0-4.437-.79-6.364-1.504a6.108 6.108 0 0 0-.764-.263 1.313 1.313 0 0 0-.763 0c-.255.075-.51.187-.764.263-1.927.714-4.109 1.504-6.363 1.504-.873 0-1.782-.038-2.619-.15a1.253 1.253 0 0 0-.945.3c-.254.226-.4.565-.4.94v13.24c0 6.58 10.51 11.545 10.982 11.733.145.075.327.113.473.113a.98.98 0 0 0 .472-.113c.437-.225 10.982-5.152 10.982-11.734V22.915c0-.339-.145-.677-.4-.94a1.17 1.17 0 0 0-.909-.301z"/>
        <path fill="#FFF" d="M39.123 28.663a1.39 1.39 0 0 0-.97.44c-2.199 2.271-3.893 4.176-5.908 6.302l-2.048-1.785a1.389 1.389 0 0 0-1.039-.37c-.38.027-.734.212-.98.512-.246.3-.364.69-.326 1.08.037.391.227.75.525.995L31.43 38.5c.56.49 1.39.453 1.909-.083 2.534-2.618 4.335-4.706 6.811-7.264a1.485 1.485 0 0 0 .31-1.606c-.227-.55-.758-.9-1.337-.884z"/>
    </g>
</svg>
