<svg xmlns="http://www.w3.org/2000/svg" width="68" height="68" viewBox="0 0 68 68">
    <g fill="none" fill-rule="evenodd">
        <circle cx="34" cy="34" r="34" fill="#FFF1D9"/>
        <path fill="#FFBB4A" d="M44.6 21.674c-.873.112-1.745.15-2.618.15-2.255 0-4.437-.79-6.364-1.504a6.108 6.108 0 0 0-.764-.263 1.313 1.313 0 0 0-.763 0c-.255.075-.51.187-.764.263-1.927.714-4.109 1.504-6.363 1.504-.873 0-1.782-.038-2.619-.15a1.253 1.253 0 0 0-.945.3c-.254.226-.4.565-.4.94v13.24c0 6.58 10.51 11.545 10.982 11.733.145.075.327.113.473.113a.98.98 0 0 0 .472-.113c.437-.225 10.982-5.152 10.982-11.734V22.915c0-.339-.145-.677-.4-.94a1.17 1.17 0 0 0-.909-.301z"/>
    </g>
</svg>
