<?xml version="1.0" standalone="no"?>
<!DOCTYPE svg PUBLIC "-//W3C//DTD SVG 20010904//EN"
 "http://www.w3.org/TR/2001/REC-SVG-20010904/DTD/svg10.dtd">
<svg version="1.0" xmlns="http://www.w3.org/2000/svg"
 width="1145.000000pt" height="1145.000000pt" viewBox="0 0 1145.000000 1145.000000"
 preserveAspectRatio="xMidYMid meet">
<metadata>
Created by potrace 1.11, written by Peter Selinger 2001-2013
</metadata>
<g transform="translate(0.000000,1145.000000) scale(0.100000,-0.100000)"
fill="#000000" stroke="none">
<path d="M5448 11445 c-2 -1 -52 -6 -113 -9 -60 -4 -123 -9 -140 -11 -16 -2
-58 -6 -91 -9 -34 -3 -77 -8 -95 -10 -54 -8 -250 -37 -268 -41 -9 -1 -54 -10
-101 -19 -130 -24 -270 -56 -360 -80 -30 -9 -66 -18 -80 -22 -162 -40 -544
-173 -710 -246 -25 -11 -61 -27 -80 -35 -205 -91 -523 -260 -723 -385 -166
-104 -446 -304 -570 -407 -249 -208 -549 -499 -713 -691 -49 -58 -91 -107 -95
-110 -8 -7 -210 -270 -235 -305 -396 -567 -656 -1098 -841 -1720 -58 -195
-133 -515 -148 -633 -2 -15 -7 -43 -10 -62 -4 -19 -8 -46 -10 -60 -4 -35 -17
-122 -20 -141 -2 -9 -6 -52 -10 -95 -4 -43 -9 -90 -11 -104 -12 -103 -19 -277
-18 -525 0 -313 6 -440 30 -640 2 -22 7 -62 10 -90 10 -92 54 -341 84 -481
130 -609 368 -1206 696 -1750 95 -158 227 -354 334 -494 34 -45 194 -245 205
-256 5 -6 43 -49 84 -95 79 -88 371 -382 456 -459 92 -82 280 -235 395 -322
113 -84 365 -258 374 -258 3 0 24 -13 48 -29 195 -130 627 -345 933 -465 318
-124 828 -265 1090 -301 22 -3 49 -8 61 -10 11 -2 45 -7 75 -11 30 -3 57 -8
60 -10 3 -1 55 -8 115 -14 60 -6 123 -13 139 -15 185 -26 847 -26 1070 0 17 2
57 7 90 11 33 4 71 8 85 9 58 6 262 38 353 56 53 10 110 21 125 24 162 29 689
182 807 235 11 5 76 31 145 58 287 114 551 248 898 457 56 33 241 159 322 219
670 491 1218 1108 1632 1836 61 107 189 365 243 490 32 74 66 153 75 175 101
231 271 813 306 1045 3 19 7 42 9 50 3 8 7 33 10 55 3 22 10 63 15 90 5 28 12
73 15 100 3 28 8 61 10 75 2 14 6 52 10 85 3 33 8 76 10 95 26 227 26 856 0
1064 -2 16 -6 59 -10 95 -6 70 -27 224 -39 291 -3 14 -7 42 -10 63 -5 33 -51
263 -62 310 -2 9 -6 25 -8 35 -2 9 -9 38 -15 63 -48 210 -207 681 -291 864
-10 22 -40 87 -65 145 -109 243 -271 533 -440 785 -79 117 -249 352 -264 365
-3 3 -24 28 -46 55 -21 28 -42 52 -45 55 -3 3 -16 18 -29 35 -91 118 -452 486
-621 631 -168 144 -274 228 -434 341 -55 39 -112 80 -126 90 -42 32 -277 175
-423 257 -112 63 -397 207 -417 211 -3 0 -27 11 -55 24 -159 73 -554 215 -745
267 -83 23 -292 75 -320 80 -14 2 -45 9 -70 14 -53 12 -77 17 -150 30 -30 5
-64 11 -75 13 -11 3 -45 8 -75 12 -30 4 -62 9 -70 10 -8 2 -42 6 -75 10 -33 4
-71 8 -85 10 -14 2 -63 6 -110 10 -47 4 -101 9 -120 12 -40 5 -677 13 -682 8z
m-29 -2251 c4 3 51 7 104 10 54 3 102 8 107 11 6 3 10 1 10 -5 0 -6 5 -8 10
-5 13 8 196 9 209 1 5 -4 13 -1 17 5 4 8 9 7 15 -2 7 -11 9 -11 9 -1 0 7 5 10
11 7 12 -8 41 -12 134 -19 89 -7 173 -16 205 -22 14 -3 39 -7 55 -9 17 -2 48
-7 70 -11 22 -4 47 -8 55 -9 9 0 21 -5 28 -9 7 -4 19 -5 27 -2 8 3 15 0 15 -7
0 -8 4 -6 10 3 5 8 10 10 10 3 0 -9 58 -28 111 -36 8 -2 19 -5 24 -9 6 -3 28
-9 50 -13 22 -4 54 -13 70 -20 17 -6 55 -20 85 -29 69 -22 162 -58 264 -102
43 -18 84 -31 90 -27 6 3 8 3 4 -2 -10 -10 201 -117 214 -108 7 3 8 1 4 -6 -5
-7 5 -17 27 -26 20 -8 56 -28 80 -45 25 -16 50 -30 56 -30 6 0 11 -4 11 -9 0
-4 20 -19 45 -32 25 -13 45 -27 45 -31 0 -5 6 -8 14 -8 8 0 16 -3 18 -7 4 -10
78 -66 78 -60 0 3 19 -13 42 -34 23 -21 45 -36 50 -33 4 3 8 1 8 -3 0 -5 33
-36 73 -68 39 -33 119 -105 176 -160 57 -55 108 -98 115 -97 6 2 8 1 4 -3 -5
-6 111 -149 187 -231 5 -6 21 -26 35 -44 14 -19 34 -45 46 -59 11 -14 46 -65
79 -113 32 -48 63 -84 68 -81 6 4 7 1 3 -6 -5 -7 3 -28 17 -49 23 -34 51 -84
116 -204 14 -26 29 -44 35 -41 5 3 6 1 3 -5 -9 -13 48 -134 58 -124 5 4 5 2 2
-5 -4 -6 9 -45 28 -87 19 -42 35 -83 35 -90 0 -8 4 -17 9 -20 4 -3 14 -26 21
-51 7 -26 17 -42 23 -38 6 3 7 1 3 -6 -4 -6 -2 -28 5 -49 7 -20 11 -37 9 -37
-2 0 3 -11 10 -25 7 -13 22 -56 32 -95 18 -66 22 -83 33 -130 18 -78 26 -112
31 -125 3 -8 7 -31 9 -50 3 -40 21 -145 25 -145 1 0 3 -23 5 -52 3 -29 7 -64
9 -79 5 -28 19 -247 19 -299 0 -16 5 -33 11 -37 8 -6 8 -8 0 -8 -13 0 -13 -59
0 -79 6 -10 6 -12 -2 -7 -9 5 -12 -17 -13 -81 0 -48 -2 -104 -4 -123 -8 -100
-15 -178 -19 -200 -2 -14 -7 -47 -11 -75 -5 -40 -27 -155 -50 -265 -3 -16 -32
-123 -60 -225 -9 -33 -20 -64 -23 -70 -4 -5 -7 -12 -7 -15 -1 -11 -48 -147
-60 -175 -8 -16 -28 -64 -45 -105 -197 -463 -507 -889 -896 -1236 -37 -32 -78
-69 -92 -81 -14 -13 -28 -23 -31 -23 -3 0 -22 -15 -42 -33 -20 -17 -47 -39
-59 -47 -12 -8 -32 -22 -44 -31 -216 -164 -624 -379 -871 -459 -38 -12 -83
-28 -100 -35 -16 -7 -66 -23 -110 -35 -87 -23 -87 -23 -160 -40 -27 -6 -68
-15 -90 -21 -42 -9 -77 -16 -135 -24 -19 -3 -44 -7 -55 -10 -11 -2 -49 -7 -85
-11 -36 -3 -68 -8 -71 -10 -11 -6 -268 -18 -394 -17 -167 0 -406 17 -427 30
-5 2 -8 -2 -8 -9 0 -9 -2 -10 -8 -1 -4 6 -27 14 -52 18 -25 3 -72 11 -105 17
-33 6 -69 12 -80 13 -11 2 -51 11 -90 20 -38 9 -77 18 -85 20 -56 12 -293 90
-382 124 -59 23 -113 39 -119 35 -7 -4 -9 -3 -6 3 3 5 -17 20 -46 33 -76 33
-236 114 -296 150 -29 16 -56 30 -61 30 -6 0 -10 5 -10 10 0 6 -4 10 -9 10 -5
0 -36 18 -70 41 -34 23 -66 37 -72 33 -7 -4 -9 -3 -5 4 3 5 -9 20 -27 31 -19
11 -50 33 -69 48 -20 16 -46 35 -58 43 -12 8 -28 20 -34 25 -6 6 -36 30 -66
55 -30 25 -66 55 -79 67 -14 12 -28 20 -33 17 -5 -3 -7 -1 -6 4 2 5 -24 33
-56 63 -33 30 -91 86 -129 126 -39 40 -75 69 -80 66 -6 -3 -7 -1 -3 5 6 10
-85 122 -106 130 -4 2 -8 8 -8 13 0 8 -9 21 -54 72 -10 12 -25 32 -33 44 -8
13 -20 20 -26 16 -6 -3 -7 -1 -3 6 5 7 -8 33 -31 64 -45 60 -147 218 -182 280
-53 96 -179 356 -197 405 -10 28 -21 52 -24 52 -4 0 -7 6 -7 13 0 22 -35 107
-43 102 -4 -2 -5 7 -2 22 3 17 1 24 -6 19 -6 -3 -8 1 -5 12 2 11 -2 26 -11 34
-8 9 -13 17 -11 20 5 5 -29 135 -38 144 -4 4 -7 17 -7 28 0 12 -9 57 -21 101
-11 44 -22 91 -24 105 -2 14 -9 52 -15 85 -5 33 -13 80 -16 105 -3 25 -7 56
-10 70 -2 14 -6 57 -10 95 -3 39 -11 76 -17 84 -10 12 -9 13 1 7 11 -7 13 -1
8 30 -4 22 -7 46 -6 54 0 18 0 31 -3 168 -1 56 0 102 3 102 3 0 6 28 7 63 3
150 8 237 14 237 3 0 6 6 7 13 0 6 3 40 5 73 2 34 7 66 11 72 3 6 9 30 12 54
3 24 9 58 14 77 5 19 7 38 4 42 -2 4 0 10 5 13 5 4 12 25 16 49 22 134 122
430 209 620 20 43 33 83 30 89 -4 6 -2 8 3 5 6 -4 16 8 24 26 7 17 20 43 30
57 9 14 16 27 16 30 -1 3 12 30 29 60 17 30 32 59 32 64 0 5 4 12 9 15 5 3 27
35 48 71 21 36 43 67 47 68 4 2 8 8 8 14 0 5 11 24 25 42 14 18 25 36 25 39 0
4 8 15 18 25 25 28 52 62 52 67 0 3 9 15 19 27 10 13 54 66 97 118 79 95 248
269 359 370 33 30 59 58 57 62 -1 4 6 4 15 1 13 -5 15 -2 10 11 -4 9 -3 15 2
12 5 -3 20 5 34 18 14 13 28 21 31 19 3 -3 8 2 12 11 3 9 11 16 16 16 15 0 73
52 70 62 -1 5 2 7 8 3 9 -6 20 1 61 38 10 9 21 17 24 17 14 -1 54 33 49 41 -3
5 2 6 10 3 10 -4 16 -1 16 7 0 7 3 10 6 6 3 -3 28 10 55 29 27 19 54 34 59 34
6 0 8 5 5 10 -4 6 -3 10 2 9 22 -4 41 3 61 21 12 12 22 17 22 13 0 -4 6 -1 13
8 7 9 16 16 20 16 4 1 53 23 107 49 69 34 98 53 95 63 -4 11 -2 11 8 2 11 -8
21 -7 43 3 25 13 78 36 94 41 3 1 16 6 30 12 48 20 254 92 280 98 3 1 22 5 42
9 21 5 36 12 33 16 -3 4 1 7 8 7 6 -1 36 2 65 7 42 6 52 11 47 23 -4 12 -2 13
7 5 10 -7 33 -6 81 4 37 7 80 16 95 18 44 8 96 18 112 21 8 2 32 4 53 4 21 1
36 4 33 9 -2 4 13 6 35 4 30 -3 40 0 45 13 6 16 8 16 16 1 5 -9 13 -14 17 -12z"/>
</g>
</svg>
