<?xml version="1.0" encoding="UTF-8" standalone="no"?><svg xmlns="http://www.w3.org/2000/svg" xmlns:xlink="http://www.w3.org/1999/xlink"><symbol id="check" xmlns="http://www.w3.org/2000/svg" width="30" height="30" viewBox="0 0 30 30"><g fill="none" fill-rule="evenodd" transform="translate(2 2)"><circle cx="13" cy="13" r="14" fill="#0FA7E6" stroke="#FFF" stroke-width="2"></circle><path fill="#FFF" d="M11.02 14.748L8.766 12.65 7 14.294 11.02 18 20 9.608 18.272 8z"></path></g></symbol><symbol id="business" xmlns="http://www.w3.org/2000/svg" width="22" height="22" viewBox="0 0 22 22"><path fill="currentColor" fill-rule="evenodd" d="M11 2c4.963 0 9 4.037 9 9s-4.037 9-9 9c-4.962 0-9-4.037-9-9s4.038-9 9-9zm0 16.168c3.953 0 7.168-3.216 7.168-7.168s-3.215-7.168-7.167-7.168c-3.954 0-7.17 3.216-7.17 7.168s3.218 7.168 7.17 7.168zm.027-9.817c-.627 0-1.158.4-1.156.873 0 .473.53.872 1.158.872.015 0 .03.003.045.005 1.602.048 2.89 1.24 2.89 2.7 0 1.185-.846 2.19-2.02 2.555v.646a.915.915 0 1 1-1.832 0v-.613c-1.23-.335-2.128-1.368-2.128-2.587a.915.915 0 1 1 1.831 0c0 .472.53.87 1.158.87.628 0 1.158-.398 1.158-.87 0-.474-.53-.873-1.158-.873-.015 0-.03-.003-.044-.004-1.603-.049-2.892-1.24-2.892-2.701 0-1.202.872-2.223 2.074-2.574v-.886a.915.915 0 1 1 1.832 0v.886c1.202.35 2.075 1.37 2.075 2.574a.915.915 0 1 1-1.832 0c0-.474-.531-.873-1.16-.873z"></path></symbol><symbol id="close" xmlns="http://www.w3.org/2000/svg" width="12" height="12" viewBox="0 0 12 12"><path fill="#B6BCBF" fill-rule="evenodd" d="M.86 11.98c.21 0 .42-.084.588-.252L6 7.196l4.552 4.552a.828.828 0 0 0 .588.252c.21 0 .42-.084.588-.252a.835.835 0 0 0 0-1.195L7.196 6l4.552-4.552a.835.835 0 0 0 0-1.196.835.835 0 0 0-1.196 0L6 4.805 1.448.272a.835.835 0 0 0-1.196 0 .835.835 0 0 0 0 1.196L4.804 6 .272 10.553a.812.812 0 0 0 0 1.175.829.829 0 0 0 .588.252z"></path></symbol><symbol id="email" xmlns="http://www.w3.org/2000/svg" width="21" height="15" viewBox="0 0 21 15"><path fill="currentColor" fill-rule="evenodd" d="M7.585 8.32c.324.316.641.63 1.034.866.71.424 1.561.575 2.366.368.629-.16 1.232-.537 1.685-.996.071-.07.14-.142.212-.215l.192.196c.546.55 1.092 1.102 1.635 1.653.657.664 1.314 1.327 1.971 1.993l1.65 1.664c.022.025.046.047.07.072l.365.372c.145.15.291.298.442.444H.938l.455-.44c.002-.001.004-.001.004-.004l.222-.213.233-.226.004-.005 1.474-1.424 2.064-1.993A1092.963 1092.963 0 0 1 7.585 8.32zM20.148.943v12.853c-.149-.149-.295-.3-.444-.448l-.207-.209-.237-.24c-.467-.47-.933-.942-1.399-1.413-.657-.664-1.314-1.327-1.97-1.993l-1.718-1.735-.36-.366c.064-.064.126-.129.19-.195.79-.804 1.578-1.607 2.37-2.41l2.377-2.422.51-.52.005-.004.44-.447c.001-.002.004-.002.004-.004l.406-.413.033-.034zM0 .937L.062 1l.002.001.002.002v.002l.09.09c.045.045.09.087.138.132l.073.07.07.07.027.027.34.333.001.001.073.073.002.002.018.018.017.018.02.02c.373.363.748.727 1.12 1.091l.354.345.767.748 2.535 2.464.46.44.456.44c-.016.016-.03.031-.046.045l-.007.007-.027.026c-.044.045-.09.087-.135.132L4.7 9.253l-2.064 1.993-.329.318-.985.955c-.146.142-.293.284-.44.424 0 0 .002 0 .002.002H.878l-.004.002H.872l-.004.006-.002.002-.001.001c-.002.002-.005.005-.01.007 0 .002-.001.002-.004.002-.075.073-.15.147-.229.218a3.19 3.19 0 0 0-.078.075l-.049.046-.022.023-.026.028c-.045.043-.09.084-.135.129l-.115.11-.116.117c-.027.028-.053.055-.078.084L0 .937zM.95.002l.28.002h17.973l-.212.216-.215.22-.004.004c-.115.117-.23.232-.344.35a4.187 4.187 0 0 0-.087.09l-.005.004L16.5 2.757l-2.268 2.31-1.698 1.73a.577.577 0 0 0-.14.112.566.566 0 0 0-.093.128l-.469.478-.131.133c-.009.01-.016.018-.025.025l-.067.06c-.044.038-.088.076-.135.113l-.084.062c-.15.105-.31.197-.48.276-.146.055-.3.099-.454.126a2.278 2.278 0 0 1-.426 0 2.546 2.546 0 0 1-.462-.13c-.026-.01-.053-.024-.078-.036l-.078-.04a1.84 1.84 0 0 1-.15-.087 1.687 1.687 0 0 1-.145-.096c-.017-.01-.033-.025-.05-.036a2.722 2.722 0 0 1-.231-.211c-.078-.078-.158-.153-.238-.23l-.433-.42c-.005-.007-.01-.013-.013-.022-.005-.007-.01-.01-.014-.018a.056.056 0 0 1-.01-.016l-.016-.02a.055.055 0 0 0-.016-.015l-.014-.014-.013-.013a.877.877 0 0 0-.11-.084C7.61 6.48 7.26 6.14 6.91 5.8L4.42 3.379A1844.68 1844.68 0 0 0 1.915.946l-.031-.03a.31.31 0 0 0-.031-.03l-.01-.003C1.8.836 1.754.789 1.707.743L1.704.737C1.703.736 1.703.733 1.7.73 1.651.68 1.602.635 1.554.587L1.552.585 1.545.578 1.52.552 1.5.534 1.483.517 1.448.48l-.02-.018-.022-.022C1.386.424 1.37.404 1.348.386 1.347.382 1.341.38 1.34.377L1.293.33 1.155.197C1.093.137 1.03.077.968.02L.951.002zM19.208 0v.004h-.004L19.207 0z"></path></symbol><symbol id="entertainment" xmlns="http://www.w3.org/2000/svg" width="22" height="22" viewBox="0 0 22 22"><g fill="currentColor" fill-rule="evenodd"><path d="M10.322 2.835c-.33-.735-1.13-.358-1.882.489-1.271 1.429-5.179 1.67-6.675 1-1.487-.667-1.476.528-1.476.528.092 12.928 7.553 11.88 7.553 11.88 7.379-2.591 2.48-13.897 2.48-13.897zM2.687 9.089c.158-.956 1.071-1.153 1.071-1.153 1.24-.4 1.661.828 1.661.828-.535 1.503-2.732.325-2.732.325zm4.678 5.178c-1.975.461-3.28-1.718-3.28-1.718 3.406 1.488 5.484-1.1 5.484-1.1s-.23 2.357-2.204 2.818zm-.257-5.715S6.903 7.27 8.185 7.04c0 0 .896-.256 1.487.513-.001 0-1.385 2.078-2.564 1z"></path><path d="M7.334 8.491c.014.094.001.019 0-.03a1.633 1.633 0 0 1 .007-.282c.005-.062-.005.018.002-.02.01-.051.019-.105.033-.157.014-.054.033-.111.054-.162-.02.045.009-.02.018-.036l.05-.09c.013-.023.03-.047.046-.07-.026.033.03-.038.04-.045a1.08 1.08 0 0 1 .137-.125 1.14 1.14 0 0 1 .413-.181c.064-.017.13-.028.195-.043.008-.001.017-.001.024-.004.047-.011-.047.004-.014.002l.066-.008c.06-.005.124-.007.186-.005.141.005.282.03.426.093.198.084.356.226.488.393a9.792 9.792 0 0 0-.038-.284c-.011.017-.023.033-.036.049-.01.019-.026.036-.04.053-.007.012-.016.021-.023.033-.037.052.012-.01-.009.012a5.4 5.4 0 0 1-.362.412 2.738 2.738 0 0 1-.648.497 5.104 5.104 0 0 0-.116.054c.024-.009.005-.001-.007.002a2.149 2.149 0 0 1-.162.052c-.026.008-.052.011-.077.017a.903.903 0 0 0-.05.008 1.282 1.282 0 0 1-.19 0c-.029-.002.002 0 .007.001-.019-.001-.037-.007-.056-.01a.9.9 0 0 1-.102-.03c-.042-.013-.03-.009-.056-.02a1.008 1.008 0 0 1-.267-.177c-.226-.202-.56.13-.331.332.235.211.51.35.83.376.273.02.544-.061.786-.18.428-.215.79-.57 1.09-.937.08-.099.158-.198.228-.303.064-.094.026-.204-.038-.284-.412-.526-1.078-.711-1.716-.575-.353.076-.687.224-.917.509a1.59 1.59 0 0 0-.33.811c-.019.16-.019.32.005.48.019.124.177.196.29.165.132-.042.185-.168.164-.293zM7.3 14.041c-.647.149-1.265-.017-1.811-.372a3.62 3.62 0 0 1-.626-.52 4.209 4.209 0 0 1-.247-.27c-.033-.038-.064-.077-.096-.118-.004-.007-.049-.064-.026-.033l-.03-.042a4.228 4.228 0 0 1-.177-.254l-.322.322c1.106.478 2.325.65 3.494.305a5.011 5.011 0 0 0 1.974-1.13c.106-.1.212-.2.303-.313-.133-.057-.268-.111-.402-.168l-.002.014c.002.005-.002.014-.002.019 0 .02.011-.077.004-.028l-.028.17c-.037.192-.09.383-.152.569a3.122 3.122 0 0 1-.31.68 2.6 2.6 0 0 1-.566.682 2.36 2.36 0 0 1-.977.487c-.294.07-.17.525.124.454.724-.174 1.325-.626 1.733-1.245a4.248 4.248 0 0 0 .644-1.802c.019-.196-.277-.322-.403-.167a4.215 4.215 0 0 1-.499.485l-.077.063c-.017.012-.051.04-.014.012-.017.01-.033.026-.049.037a4.478 4.478 0 0 1-1.224.66c-.456.16-.903.236-1.378.236a4.968 4.968 0 0 1-1.958-.428c-.099-.042-.204-.042-.284.038a.241.241 0 0 0-.038.284c.168.277.382.534.605.767.45.468 1.007.866 1.64 1.037.426.118.87.12 1.3.02.3-.065.174-.519-.122-.451zM2.913 9.15c.03-.179.085-.337.184-.49a.796.796 0 0 1 .115-.143l.077-.075c.015-.011.029-.026.046-.037.03-.027-.005.001.014-.012.094-.07.197-.13.306-.177.035-.017-.043.014.011-.004a.895.895 0 0 1 .129-.042c.263-.076.497-.109.736-.029.014.005.028.01.042.017.04.014-.047-.024.017.007.027.012.052.027.077.04l.083.052.043.03c-.027-.019-.005-.005.009.007.042.038.083.076.122.116.021.024.043.047.061.07.008.01.015.02.024.029-.024-.03-.01-.011.005.01.053.08.105.16.146.246l.02.045c.027.054-.011-.033-.004-.014.001.011.009.02.01.033v-.124a.83.83 0 0 1-.4.48c-.02.011-.044.02-.065.033-.033.014.033-.012-.002 0l-.04.014a1.127 1.127 0 0 1-.174.045c-.01.002-.075.011-.053.01l-.054.004c-.061.005-.124.005-.186.005a3.218 3.218 0 0 1-.165-.01c-.01 0-.096-.01-.047-.004a3.237 3.237 0 0 1-.426-.092 3.256 3.256 0 0 1-.303-.1c-.046-.016-.09-.032-.134-.051a2.042 2.042 0 0 0-.054-.02c-.066-.027.005.001-.02-.01a3.59 3.59 0 0 1-.26-.123c-.265-.143-.506.264-.236.407.31.168.654.294.997.38.573.14 1.238.161 1.706-.253.115-.103.214-.235.282-.375.057-.112.122-.237.085-.365a1.58 1.58 0 0 0-.283-.491 1.507 1.507 0 0 0-.675-.494c-.325-.116-.667-.075-.99.017-.624.177-1.116.666-1.229 1.316-.02.124.033.254.165.29.113.027.266-.041.288-.168z"></path><path d="M10.524 2.715c-.124-.268-.348-.466-.647-.5-.285-.036-.573.089-.807.24-.315.199-.574.462-.826.735-.16.172-.287.269-.478.391-.857.541-1.947.753-2.954.833a9.62 9.62 0 0 1-1.622-.002c-.402-.038-.835-.105-1.242-.262a2.039 2.039 0 0 0-.054-.02c.054.02-.02-.01-.03-.014-.092-.04-.183-.08-.28-.113a2.178 2.178 0 0 0-.438-.104 1.063 1.063 0 0 0-.626.099c-.254.134-.406.41-.452.687-.018.113-.017.216-.017.331.005.372.015.744.033 1.113.033.66.087 1.322.17 1.978.141 1.1.353 2.191.698 3.245.268.815.61 1.61 1.062 2.34a7.86 7.86 0 0 0 1.28 1.59c.41.384.866.72 1.36.986.41.22.845.395 1.291.516.35.094.71.158 1.073.188.22.019.438.024.657.011.331-.018.63-.169.927-.31a5.772 5.772 0 0 0 2.073-1.61c.517-.649.887-1.4 1.118-2.197.233-.802.334-1.645.348-2.48a14.998 14.998 0 0 0-.18-2.515 20.846 20.846 0 0 0-.467-2.235 24.86 24.86 0 0 0-.531-1.751c-.116-.331-.236-.66-.37-.986-.017-.063-.044-.124-.069-.184-.049-.118-.221-.143-.322-.085-.12.07-.133.205-.085.322.021.05-.004-.011-.009-.019l.042.102a24.121 24.121 0 0 1 .621 1.758c.2.651.377 1.313.518 1.979.08.376.15.757.21 1.138.035.226.048.337.074.551.024.2.046.403.059.602.064.807.066 1.622-.033 2.424-.002.026-.008.052-.01.075.005-.045-.001.024-.004.036-.008.052-.014.102-.024.152-.017.096-.033.193-.052.292-.037.196-.082.39-.136.582a7.02 7.02 0 0 1-.179.565 5.963 5.963 0 0 1-.814 1.497 5.705 5.705 0 0 1-.384.438 4.895 4.895 0 0 1-.684.59 6.236 6.236 0 0 1-1.487.774c-.137.048.047.007-.005.01a4.721 4.721 0 0 1-.4.02c-.122 0-.247-.008-.369-.017a3.455 3.455 0 0 1-.273-.029c-.056-.007.064.01-.007 0-.043-.007-.083-.01-.125-.018a6.002 6.002 0 0 1-1.12-.302l-.15-.058-.017-.007a5.903 5.903 0 0 1-1.293-.76c-.002-.003.03.025-.005-.006-.017-.011-.03-.026-.047-.037a6.675 6.675 0 0 1-.953-.937c-.054-.064-.106-.13-.159-.196a.403.403 0 0 1-.045-.061c-.026-.035-.052-.067-.077-.103a8.042 8.042 0 0 1-.296-.435 9.626 9.626 0 0 1-.793-1.553 12.352 12.352 0 0 1-.235-.63c-.16-.468-.292-.944-.405-1.424A21.043 21.043 0 0 1 .57 6.408a26.3 26.3 0 0 1-.042-1.054c-.005-.183-.017-.367-.005-.55 0-.015.01-.071.002-.02a1.326 1.326 0 0 1 .053-.186c.002-.004-.027.05 0 .005.007-.011.011-.023.019-.036.014-.028.033-.053.049-.077-.04.059.02-.019.037-.036l.033-.028c-.04.033-.007.008.014-.007.014-.008.028-.014.043-.024.03-.019-.038.01.01-.005.043-.01.08-.023.125-.03.036-.007-.04.002-.002 0l.03-.002.066-.001a.83.83 0 0 1 .083.004c.045.002.019 0 .066.01.259.049.485.164.73.252.418.15.87.22 1.31.259a9.679 9.679 0 0 0 3.226-.254 5.827 5.827 0 0 0 1.429-.546c.197-.111.386-.24.555-.388.233-.202.42-.45.659-.648.193-.161.43-.337.687-.365-.033.005.04 0 .049 0 .011 0 .066.005.052.002a.24.24 0 0 1 .096.038c.03.017.053.036.092.084.019.024.06.104.084.151.054.116.22.143.322.085.116-.072.137-.21.083-.326z"></path><path d="M9.778 17.235a6.977 6.977 0 0 0 1.214 2.028c.38.435.826.814 1.308 1.13.322.208.664.378 1.021.519.292.117.608.117.921.12a6.234 6.234 0 0 0 2.872-.664c.77-.39 1.452-.97 2-1.633a9.948 9.948 0 0 0 1.395-2.264 16.01 16.01 0 0 0 .883-2.513c.19-.724.337-1.463.447-2.204.092-.62.168-1.24.215-1.864.019-.261.033-.525.042-.785.008-.25-.007-.51-.099-.746-.117-.306-.3-.566-.588-.736a1.536 1.536 0 0 0-.918-.188c-.456.045-.856.19-1.278.372l.17-.07a3.212 3.212 0 0 1-.807.208c.064-.01.124-.017.188-.026-.547.073-1.105.047-1.654-.027l.188.027a9.018 9.018 0 0 1-2.287-.62l.17.071a6.162 6.162 0 0 1-.885-.452c-.059-.037-.118-.075-.177-.117l-.087-.064a1.182 1.182 0 0 0 .041.033 2.274 2.274 0 0 1-.284-.272c-.246-.274-.75-.27-.997 0a.72.72 0 0 0 0 .998c.282.315.65.565 1.016.772.452.252.937.452 1.426.613.47.159.952.278 1.44.358a8.317 8.317 0 0 0 1.617.127c.301-.011.604-.045.899-.103.282-.057.538-.156.802-.269l-.17.071c.26-.108.525-.202.805-.243l-.188.027c.11-.015.22-.02.331-.005l-.188-.027c.068.01.136.027.2.052l-.17-.07c.04.017.077.04.116.06.08.048-.168-.145-.083-.063.011.011.026.023.038.037.047.046.06.123-.068-.092.01.017.023.03.033.047.02.033.037.068.051.104l-.07-.17c.033.08.054.162.066.25l-.027-.188c.027.186.01.38 0 .569a21.707 21.707 0 0 1-.17 1.852l.025-.188a19.89 19.89 0 0 1-.793 3.567c-.12.365-.252.723-.4 1.078l.07-.17a10.165 10.165 0 0 1-1.2 2.134c-.01.017-.026.03-.037.047l.061-.08c-.028.038-.058.074-.086.111a6.102 6.102 0 0 1-.35.397 5.753 5.753 0 0 1-.584.54l-.054.042c-.084.066.066-.052.08-.061-.037.026-.073.056-.11.083a5.381 5.381 0 0 1-1.044.593l.17-.07c-.431.18-.883.3-1.344.364.064-.01.124-.017.188-.026a6.546 6.546 0 0 1-1.391.028c.064.01.124.017.188.026a2.134 2.134 0 0 1-.261-.098l.169.07a5.156 5.156 0 0 1-1.002-.572l-.076-.056a14.266 14.266 0 0 1-.118-.096 5.688 5.688 0 0 1-.73-.747c-.01-.018-.025-.034-.036-.05-.029-.037-.057-.077-.085-.115a6.06 6.06 0 0 1-.621-1.125l.07.17-.056-.142c-.07-.177-.153-.322-.325-.42a.71.71 0 0 0-.544-.071c-.171.053-.337.16-.42.324-.085.157-.142.368-.074.543z"></path><path d="M12.623 11.312c.518-.777 1.395-.586 1.395-.586 1.247.141 1.13 1.386 1.13 1.386-1.063 1.108-2.525-.8-2.525-.8z"></path><path d="M12.825 11.432a1.126 1.126 0 0 1 .767-.478c.015-.002.029-.002.043-.005a1.364 1.364 0 0 1 .286.002c.054.005.014-.005-.008-.002.012-.002.029.005.04.008.152.023.325.058.442.117a.785.785 0 0 1 .306.25c-.026-.033-.005-.005 0 .002.017.026.036.049.05.077a.996.996 0 0 1 .037.068c.007.011.011.023.017.036.023.045.002 0 .007.014.038.094.064.193.083.293.01.045.008.05.005.02l.007.067c.002.036.005.073.005.108 0 .036 0 .07-.002.104.024-.057.047-.111.068-.168a.988.988 0 0 1-.284.212.52.52 0 0 1-.111.04c-.027.007-.052.01-.078.018-.051.012.002.005-.049.008a2.212 2.212 0 0 1-.158 0c-.051-.002 0 .002-.037-.005a1.06 1.06 0 0 1-.242-.066c-.066-.023-.052-.017-.116-.049a2.279 2.279 0 0 1-.294-.171 2.228 2.228 0 0 1-.237-.179 4.426 4.426 0 0 1-.533-.538c-.024-.03-.087-.111-.017-.02-.078-.1-.203-.154-.322-.084-.1.059-.162.221-.085.322.228.3.499.563.798.79.447.341 1.05.614 1.608.391.227-.092.55-.273.562-.544a1.772 1.772 0 0 0-.056-.497 1.499 1.499 0 0 0-.365-.666 1.313 1.313 0 0 0-.377-.264 1.613 1.613 0 0 0-.235-.089c-.042-.011-.087-.024-.13-.03-.02-.005-.04-.008-.061-.011a1.387 1.387 0 0 1-.124-.02 1.768 1.768 0 0 0-.596.011c-.426.078-.78.338-1.021.69-.074.105-.019.262.085.322.118.067.252.02.322-.084zM11.927 16.366c.018-.03 1.334-2.057 3.207-1.56 1.887.498 2.042 2.776 2.042 2.776s-1.924-2.55-5.25-1.216z"></path><path d="M12.13 16.486l.046-.064c.017-.02.03-.045.047-.065l.028-.038c.036-.047-.028.036.012-.017a4.92 4.92 0 0 1 .43-.475c.41-.394.9-.716 1.47-.829.608-.12 1.301.08 1.764.476.108.094.208.195.3.306.068.082.151.197.222.318.068.115.132.233.186.355.03.068.02.046.052.123a3.894 3.894 0 0 1 .224.805c.008.035.011.07.017.105.01.061-.005-.042-.002-.011.002.01.002.026.005.037l.007.07c.146-.039.292-.08.438-.117-.256-.339-.588-.62-.932-.866a4.583 4.583 0 0 0-2.534-.851c-.7-.017-1.4.136-2.05.393-.117.047-.199.158-.164.29.03.113.171.212.29.165 1.002-.398 2.075-.51 3.094-.172a4.38 4.38 0 0 1 1.219.65l.045.033c.021.017-.009-.008-.01-.01.009.008.018.014.027.02l.087.071c.099.083.193.168.282.256.07.068.14.142.203.217.023.028.108.136.035.04.064.084.156.139.266.108.094-.027.179-.125.171-.226-.058-.843-.423-1.74-1.028-2.33-.522-.51-1.266-.804-1.997-.754-.694.049-1.318.379-1.837.823a4.349 4.349 0 0 0-.824.924c-.157.26.25.494.412.24zM16.714 12.597s.328-1.206 1.544-.9c0 0 .89.131 1.101 1.04.003-.001-2.035 1.272-2.645-.14z"></path><path d="M16.943 12.658c.008-.029.019-.057.028-.085l.014-.038c-.028.076-.007.014.002-.004.02-.04.038-.078.059-.116a.952.952 0 0 1 .075-.12l.036-.049c-.02.024.004-.007.011-.011l.03-.036a1.438 1.438 0 0 1 .16-.15c-.033.026-.005.004.002 0 .03-.021.058-.04.09-.057a.577.577 0 0 1 .139-.061c.035-.011.067-.02.103-.028.045-.01.068-.012.09-.014.146-.01.274.007.416.037.045.01.09.02.133.033.04.012.08.028.12.043.049.018-.027-.015.036.014.03.014.058.028.086.045.28.152.476.397.557.742.036-.09.074-.177.109-.266a2.5 2.5 0 0 1-.196.108c-.07.038-.143.074-.217.106a1.6 1.6 0 0 1-.15.065l-.077.03a3.105 3.105 0 0 1-.628.17 1.93 1.93 0 0 1-.306.01c-.03-.001-.058-.004-.087-.007.043.005-.02-.005-.035-.008-.054-.009-.106-.026-.159-.042l-.039-.014c.03.011 0 0-.014-.008-.027-.014-.052-.026-.077-.042a1.04 1.04 0 0 1-.059-.038l-.064-.056a.688.688 0 0 1-.103-.12 1.476 1.476 0 0 1-.116-.214c-.052-.116-.221-.143-.322-.085-.12.07-.136.204-.085.322.238.537.753.807 1.328.781.475-.023.936-.193 1.36-.403.094-.047.19-.096.28-.152a.24.24 0 0 0 .108-.266 1.636 1.636 0 0 0-1.247-1.2c-.318-.067-.642-.094-.95.029-.29.115-.518.32-.688.579-.089.136-.169.293-.211.453-.076.292.378.417.458.123z"></path></g></symbol><symbol id="conservative" xmlns="http://www.w3.org/2000/svg" xmlns:xlink="http://www.w3.org/1999/xlink" version="1.1" id="Capa_1" x="0px" y="0px" viewBox="0 0 512 512" style="enable-background:new 0 0 512 512;" xml:space="preserve" width="512" height="512"><g><path d="M106,212h240c8.284,0,15-6.716,15-15V75c0-8.284-6.716-15-15-15H106c-8.284,0-15,6.716-15,15v122   C91,205.284,97.716,212,106,212z M121,90h210v92H121V90z"></path><path d="M106,452h90c8.284,0,15-6.716,15-15v-60c0-8.284-6.716-15-15-15h-90c-8.284,0-15,6.716-15,15v60   C91,445.284,97.716,452,106,452z M121,392h60v30h-60V392z"></path><path d="M106,332h240c8.284,0,15-6.716,15-15s-6.716-15-15-15H106c-8.284,0-15,6.716-15,15S97.716,332,106,332z"></path><path d="M106,272h240c8.284,0,15-6.716,15-15s-6.716-15-15-15H106c-8.284,0-15,6.716-15,15S97.716,272,106,272z"></path><path d="M346,362h-90c-8.284,0-15,6.716-15,15s6.716,15,15,15h90c8.284,0,15-6.716,15-15S354.284,362,346,362z"></path><path d="M346,422h-90c-8.284,0-15,6.716-15,15s6.716,15,15,15h90c8.284,0,15-6.716,15-15S354.284,422,346,422z"></path><path d="M481,135c0-8.284-6.716-15-15-15h-45V15c0-8.284-6.716-15-15-15H46c-8.284,0-15,6.716-15,15v452c0,24.813,20.187,45,45,45   h360c24.813,0,45-20.187,45-45V135z M61,30h330v437c0,5.258,0.915,10.305,2.58,15H76c-8.271,0-15-6.729-15-15V30z M451,467   c0,8.271-6.729,15-15,15s-15-6.729-15-15V150h30V467z"></path></g></symbol><symbol id="coronavirus" height="512" viewBox="0 0 512 512" width="512" xmlns="http://www.w3.org/2000/svg"><g><path fill="currentColor" fill-rule="evenodd" d="m500.879 289.165c-7.72-2.07-16.152 2.326-18.371 10.606l-.347 1.296-34.708-9.3c2.162-11.599 3.304-23.552 3.304-35.768 0-12.217-1.143-24.171-3.305-35.771l34.708-9.3.347 1.296c2.219 8.281 10.652 12.676 18.371 10.606 8.002-2.144 12.751-10.369 10.606-18.371l-8.459-31.569c-2.145-8.002-10.365-12.752-18.371-10.606-8.002 2.144-12.75 10.369-10.606 18.371l.347 1.296-34.718 9.303c-8.09-22.882-20.335-43.815-35.834-61.884l25.481-25.481.949.949c5.856 5.857 15.355 5.859 21.213 0 5.858-5.858 5.858-15.355 0-21.213l-23.11-23.11c-5.857-5.858-15.355-5.858-21.213 0s-5.858 15.355 0 21.213l.949.949-25.481 25.48c-18.071-15.5-39.005-27.746-61.888-35.835l9.302-34.716 1.296.347c8.314 2.228 16.314-2.928 18.371-10.606 2.144-8.002-2.604-16.227-10.606-18.371l-31.569-8.459c-8.003-2.145-16.228 2.605-18.371 10.606-2.144 8.002 2.604 16.227 10.606 18.371l1.296.347-9.3 34.708c-11.599-2.162-23.552-3.304-35.768-3.304s-24.169 1.142-35.768 3.304l-9.3-34.708 1.296-.347c8.002-2.144 12.75-10.369 10.606-18.371-2.143-8.003-10.368-12.753-18.37-10.608l-31.569 8.459c-8.002 2.144-12.75 10.369-10.606 18.371 2.057 7.679 10.057 12.835 18.371 10.606l1.296-.347 9.302 34.716c-22.883 8.09-43.817 20.335-61.888 35.835l-25.481-25.48.949-.949c5.858-5.858 5.858-15.355 0-21.213-5.857-5.858-15.355-5.858-21.213 0l-23.11 23.11c-5.858 5.858-5.858 15.355 0 21.213 5.858 5.859 15.357 5.857 21.213 0l.949-.949 25.481 25.481c-15.499 18.07-27.744 39.003-35.834 61.884l-34.718-9.303.347-1.296c2.144-8.002-2.604-16.227-10.606-18.371-8.006-2.146-16.227 2.604-18.371 10.606l-8.461 31.572c-2.144 8.002 2.604 16.227 10.606 18.371 7.72 2.07 16.152-2.326 18.371-10.606l.347-1.296 34.708 9.3c-2.162 11.6-3.305 23.554-3.305 35.771 0 12.216 1.142 24.169 3.304 35.768l-34.708 9.3-.347-1.296c-2.219-8.281-10.652-12.676-18.371-10.606-8.002 2.144-12.75 10.369-10.606 18.371l8.459 31.569c2.145 8.002 10.365 12.752 18.371 10.606 8.002-2.144 12.75-10.369 10.606-18.371l-.347-1.296 34.716-9.302c8.09 22.883 20.335 43.817 35.835 61.888l-25.481 25.481-.949-.949c-5.856-5.857-15.355-5.859-21.213 0-5.858 5.858-5.858 15.355 0 21.213l23.11 23.11c5.857 5.858 15.355 5.858 21.213 0s5.858-15.355 0-21.213l-.949-.949 25.481-25.48c18.071 15.5 39.005 27.746 61.888 35.835l-9.302 34.716-1.296-.347c-8.314-2.228-16.314 2.928-18.371 10.606-2.144 8.002 2.604 16.227 10.606 18.371l31.569 8.459c8.003 2.145 16.228-2.605 18.371-10.606 2.144-8.002-2.604-16.227-10.606-18.371l-1.296-.347 9.3-34.708c11.599 2.162 23.552 3.304 35.768 3.304s24.169-1.142 35.768-3.304l9.3 34.708-1.296.347c-8.002 2.144-12.75 10.369-10.606 18.371 2.144 8.001 10.368 12.751 18.371 10.606l31.569-8.459c8.002-2.144 12.75-10.369 10.606-18.371-2.057-7.679-10.057-12.835-18.371-10.606l-1.296.347-9.302-34.716c22.883-8.09 43.817-20.335 61.888-35.835l25.481 25.48-.949.949c-5.858 5.858-5.858 15.355 0 21.213 5.857 5.858 15.355 5.858 21.213 0l23.11-23.11c5.858-5.858 5.858-15.355 0-21.213-5.858-5.859-15.357-5.857-21.213 0l-.949.949-25.481-25.481c15.5-18.071 27.746-39.005 35.835-61.888l34.716 9.302-.347 1.296c-2.144 8.002 2.604 16.227 10.606 18.371 8.006 2.146 16.227-2.604 18.371-10.606l8.459-31.569c2.149-8.003-2.599-16.228-10.601-18.372zm-244.879 131.592c-90.847 0-164.757-73.91-164.757-164.757s73.91-164.757 164.757-164.757 164.757 73.91 164.757 164.757-73.91 164.757-164.757 164.757z"></path><circle cx="256" cy="143.533" r="15"></circle><circle cx="256" cy="368.467" r="15"></circle><circle cx="223.867" cy="288.133" r="15"></circle><circle cx="288.133" cy="288.133" r="15"></circle><circle cx="288.133" cy="223.867" r="15"></circle><circle cx="223.867" cy="223.867" r="15"></circle><circle cx="368.467" cy="256" r="15"></circle><circle cx="143.533" cy="256" r="15"></circle><circle cx="335.526" cy="176.478" r="15"></circle><circle cx="176.474" cy="335.53" r="15"></circle><circle cx="335.526" cy="335.53" r="15"></circle><circle cx="176.474" cy="176.478" r="15"></circle></g></symbol><symbol id="health" xmlns="http://www.w3.org/2000/svg" width="22" height="22" viewBox="0 0 22 22"><path fill="currentColor" fill-rule="evenodd" d="M20.15 3.818c-1.179-1.159-2.793-1.726-4.536-1.586-1.34.104-2.681.634-3.773 1.477C10.48 2.574 9.184 2 7.98 2c-1.695 0-3.277.64-4.468 1.812a6.107 6.107 0 0 0-1.844 4.393c0 .415.044.848.118 1.215H0v1.708h2.402a5.913 5.913 0 0 0 1.11 1.477l.02.018 7.707 7.145a.88.88 0 0 0 1.192 0l7.707-7.145.019-.018A6.107 6.107 0 0 0 22 8.212a6.113 6.113 0 0 0-1.85-4.393zm-1.222 7.567l-7.094 6.583-7.105-6.583c-.081-.08-.162-.19-.236-.25h1.874a.868.868 0 0 0 .776-.464l.372-.726.739 2.172c.105.311.378.53.713.573a.87.87 0 0 0 .838-.372l1.043-1.55h.477l1.297 2.978a.867.867 0 0 0 .801.519h.037a.857.857 0 0 0 .788-.586l1.366-4.015.645 1.055c.155.257.44.415.745.415h2.16c-.087.061-.15.171-.236.25zm1.16-1.96h-2.594L16.129 7.2a.87.87 0 0 0-.838-.409.862.862 0 0 0-.726.58l-1.235 3.636-.62-1.427a.862.862 0 0 0-.801-.513h-1.52a.875.875 0 0 0-.727.378l-.323.476-.831-2.44a.867.867 0 0 0-.757-.58.879.879 0 0 0-.838.464l-1.08 2.062H3.568A4.289 4.289 0 0 1 3.4 8.212c0-1.208.472-2.337 1.335-3.185a4.582 4.582 0 0 1 3.239-1.312c.906 0 2.03.61 3.252 1.757a.876.876 0 0 0 1.21-.012c1.676-1.63 4.63-2.258 6.485-.433a4.428 4.428 0 0 1 1.334 3.185c0 .42-.05.848-.167 1.214z"></path></symbol><symbol id="facebook" xmlns="http://www.w3.org/2000/svg" width="17" height="17" viewBox="0 0 17 17"><path fill="currentColor" fill-rule="evenodd" d="M9.08 17H.938A.938.938 0 0 1 0 16.062V.938C0 .42.42 0 .938 0h15.124c.518 0 .938.42.938.938v15.124c0 .518-.42.938-.938.938H11.73v-6.583h2.21l.33-2.566h-2.54V6.213c0-.743.206-1.249 1.271-1.249h1.359V2.668a18.162 18.162 0 0 0-1.98-.101c-1.959 0-3.3 1.195-3.3 3.39v1.893H6.865v2.566H9.08V17z"></path></symbol><symbol id="arrow-down" xmlns="http://www.w3.org/2000/svg" width="9" height="5" viewBox="0 0 9 5"><path fill="currentColor" fill-rule="evenodd" d="M4.5 5a.641.641 0 0 1-.447-.18L.185 1.05a.603.603 0 0 1 0-.87.638.638 0 0 1 .89 0L4.5 3.518 7.924.18a.64.64 0 0 1 .89 0 .603.603 0 0 1 0 .869L4.947 4.82A.637.637 0 0 1 4.5 5"></path></symbol><symbol id="liberal" xmlns="http://www.w3.org/2000/svg" xmlns:xlink="http://www.w3.org/1999/xlink" version="1.1" id="Capa_1" x="0px" y="0px" viewBox="0 0 512 512" style="enable-background:new 0 0 512 512;" xml:space="preserve" width="512" height="512"><g><path d="M106,212h240c8.284,0,15-6.716,15-15V75c0-8.284-6.716-15-15-15H106c-8.284,0-15,6.716-15,15v122   C91,205.284,97.716,212,106,212z M121,90h210v92H121V90z"></path><path d="M106,452h90c8.284,0,15-6.716,15-15v-60c0-8.284-6.716-15-15-15h-90c-8.284,0-15,6.716-15,15v60   C91,445.284,97.716,452,106,452z M121,392h60v30h-60V392z"></path><path d="M106,332h240c8.284,0,15-6.716,15-15s-6.716-15-15-15H106c-8.284,0-15,6.716-15,15S97.716,332,106,332z"></path><path d="M106,272h240c8.284,0,15-6.716,15-15s-6.716-15-15-15H106c-8.284,0-15,6.716-15,15S97.716,272,106,272z"></path><path d="M346,362h-90c-8.284,0-15,6.716-15,15s6.716,15,15,15h90c8.284,0,15-6.716,15-15S354.284,362,346,362z"></path><path d="M346,422h-90c-8.284,0-15,6.716-15,15s6.716,15,15,15h90c8.284,0,15-6.716,15-15S354.284,422,346,422z"></path><path d="M481,135c0-8.284-6.716-15-15-15h-45V15c0-8.284-6.716-15-15-15H46c-8.284,0-15,6.716-15,15v452c0,24.813,20.187,45,45,45   h360c24.813,0,45-20.187,45-45V135z M61,30h330v437c0,5.258,0.915,10.305,2.58,15H76c-8.271,0-15-6.729-15-15V30z M451,467   c0,8.271-6.729,15-15,15s-15-6.729-15-15V150h30V467z"></path></g></symbol><symbol id="lifestyle" xmlns="http://www.w3.org/2000/svg" width="22" height="22" viewBox="0 0 22 22"><path fill="currentColor" fill-rule="evenodd" d="M10.966 2C15.925 2 20 6.008 20 10.966 20 15.924 15.925 20 10.966 20 6.008 20 2 15.925 2 10.966A8.958 8.958 0 0 1 10.966 2zm1.698 1.562c.815 1.223 1.427 2.513 1.766 3.804h3.26c-1.018-1.97-2.852-3.328-5.026-3.804zm5.638 5.163H14.77c.068.543.136 1.154.136 1.766 0 .883-.136 1.834-.272 2.785h3.669c.203-.747.34-1.494.34-2.31 0-.747-.137-1.562-.34-2.241h-.001zm-.611 5.91h-3.464a19.188 19.188 0 0 1-1.767 3.87 7.828 7.828 0 0 0 5.23-3.87zm-8.15 3.87c-.816-1.357-1.427-2.648-1.767-3.87H4.31c1.019 1.97 2.989 3.396 5.23 3.87zm-5.842-5.229h3.668a13.32 13.32 0 0 1-.272-2.785c0-.611.069-1.223.136-1.766H3.7a8.127 8.127 0 0 0-.34 2.241c0 .815.137 1.563.34 2.31zm.61-5.91h3.193c.408-1.29 1.019-2.58 1.766-3.804-2.106.476-3.94 1.834-4.958 3.804zm4.62 0h4.075c-.408-1.358-1.087-2.65-2.038-3.871A15.12 15.12 0 0 0 8.93 7.366zm4.414 1.359H8.59a14.288 14.288 0 0 0-.136 1.766c0 .883.068 1.834.34 2.785h4.415c.203-.95.34-1.902.34-2.785 0-.611-.069-1.223-.205-1.766zm-.543 5.91H9.2c.408 1.154 1.019 2.377 1.766 3.668.815-1.29 1.427-2.513 1.834-3.669z"></path></symbol><symbol id="good" id="Layer_1" enable-background="new 0 0 512 512" height="512" viewBox="0 0 512 512" width="512" xmlns="http://www.w3.org/2000/svg"><g><path d="m488.792 178.372-41.059-41.052v-90.187c0-26.047-21.058-47.133-47.133-47.133h-289.2c-26.488 0-47.133 21.573-47.133 47.133v90.187l-41.051 41.051c-14.971 14.971-23.216 34.872-23.216 56.036v230.46c0 25.641 20.74 47.133 47.133 47.133h417.733c26.433 0 47.134-21.53 47.134-47.133v-230.46c0-21.17-8.242-41.07-23.208-56.035zm-41.059 1.37 19.846 19.842c8.815 8.816 13.876 20.389 14.379 32.777l-34.225 25.096zm-353.466-132.609c0-9.242 7.457-17.133 17.133-17.133h289.2c9.546 0 17.133 7.733 17.133 17.133v232.326l-132.598 97.235c-17.428 12.779-40.845 12.779-58.271 0l-132.597-97.235zm-49.838 152.451 19.837-19.838v77.711l-34.225-25.096c.503-12.383 5.567-23.956 14.388-32.777zm437.571 265.283c0 9.307-7.529 17.133-17.133 17.133h-417.734c-9.601 0-17.133-7.831-17.133-17.133v-195.333l179.124 131.354c28.038 20.561 65.714 20.561 93.752 0l179.124-131.354z"></path><path d="m314.799 205.22c-5.862-5.855-15.36-5.848-21.213.014-9.878 9.89-23.577 15.563-37.587 15.563-14.009 0-27.708-5.672-37.586-15.563-5.855-5.863-15.352-5.868-21.213-.014s-5.868 15.352-.014 21.213c15.463 15.483 36.899 24.363 58.813 24.363s43.351-8.88 58.813-24.363c5.855-5.861 5.848-15.359-.013-21.213z"></path><circle cx="223.866" cy="159.6" r="15"></circle><circle cx="288.133" cy="159.6" r="15"></circle><path d="m383.467 191.733c0-70.285-57.182-127.467-127.467-127.467s-127.467 57.182-127.467 127.467 57.182 127.467 127.467 127.467 127.467-57.181 127.467-127.467zm-224.934 0c0-53.743 43.724-97.467 97.467-97.467s97.467 43.724 97.467 97.467-43.724 97.467-97.467 97.467-97.467-43.723-97.467-97.467z"></path></g></symbol><symbol id="search" xmlns="http://www.w3.org/2000/svg" width="18" height="18" viewBox="0 0 18 18"><path fill="currentColor" fill-rule="evenodd" d="M7.815 0C3.508 0 0 3.507 0 7.815s3.507 7.816 7.815 7.816c1.9 0 3.64-.681 4.996-1.813l3.974 3.974a.712.712 0 0 0 1.007 0 .704.704 0 0 0 0-1l-3.974-3.974a7.796 7.796 0 0 0 1.813-5.003C15.63 3.508 12.124 0 7.815 0zm0 1.421a6.384 6.384 0 0 1 6.395 6.394 6.384 6.384 0 0 1-6.395 6.395 6.384 6.384 0 0 1-6.394-6.395 6.384 6.384 0 0 1 6.394-6.394z"></path></symbol><symbol id="shield-green" xmlns="http://www.w3.org/2000/svg" width="18" height="22" viewBox="0 0 18 22"><g fill="none" fill-rule="evenodd"><path fill="#53BB4A" d="M16.971 1.315c-.685.089-1.371.118-2.057.118-1.771 0-3.485-.62-5-1.182-.2-.088-.4-.147-.6-.207-.2-.059-.428-.059-.6 0-.2.06-.4.148-.6.207-1.514.562-3.228 1.182-5 1.182-.685 0-1.4-.03-2.057-.118a.984.984 0 0 0-.743.236.976.976 0 0 0-.314.74v10.4c0 5.172 8.257 9.072 8.629 9.22A.857.857 0 0 0 9 22a.77.77 0 0 0 .371-.089c.343-.177 8.629-4.048 8.629-9.22v-10.4c0-.267-.114-.533-.314-.74a.92.92 0 0 0-.715-.236z"></path><path fill="#FFF" d="M12.668 6.807c-.288.009-.561.132-.762.345-1.728 1.785-3.059 3.282-4.642 4.952l-1.61-1.403a1.091 1.091 0 0 0-.815-.29c-.299.021-.577.166-.77.402a1.162 1.162 0 0 0-.257.85c.03.306.178.588.413.78l2.399 2.093c.44.384 1.092.356 1.5-.065 1.99-2.057 3.405-3.698 5.351-5.708.325-.329.422-.83.243-1.262a1.106 1.106 0 0 0-1.05-.694z"></path></g></symbol><symbol id="shield-green-stroke" xmlns="http://www.w3.org/2000/svg" width="22" height="26" viewBox="0 0 22 26"><g fill="none" fill-rule="evenodd"><path fill="#53BB4A" stroke="#FFF" stroke-linecap="round" stroke-linejoin="round" stroke-width="2" d="M18.843 2.323l.014-.001c.543-.063 1.082.117 1.548.534.376.39.595.903.595 1.434v10.402c0 2.702-1.788 5.154-4.714 7.38a26.308 26.308 0 0 1-2.982 1.951 27.873 27.873 0 0 1-1.474.777c-.259.134-.53.2-.83.2-.277 0-.576-.069-.741-.16-.893-.355-3.002-1.548-4.698-2.865C2.728 19.773 1 17.347 1 14.692V4.29c0-.573.23-1.114.65-1.487.412-.364.98-.544 1.54-.479.556.075 1.2.11 1.924.11 1.316 0 2.463-.309 4.716-1.142.055-.016.108-.034.237-.082.171-.063.252-.092.32-.11.377-.13.818-.13 1.21-.015.34.1.503.155.665.229 2.19.811 3.336 1.12 4.652 1.12.714 0 1.339-.034 1.93-.11z"></path><path fill="#FFF" d="M14.668 8.807c-.288.009-.561.132-.762.345-1.728 1.785-3.059 3.282-4.642 4.952l-1.61-1.403a1.091 1.091 0 0 0-.815-.29c-.299.021-.577.166-.77.402a1.162 1.162 0 0 0-.257.85c.03.306.178.588.413.78l2.399 2.093c.44.384 1.092.356 1.5-.065 1.99-2.057 3.405-3.698 5.351-5.708.325-.329.422-.83.243-1.262a1.106 1.106 0 0 0-1.05-.694z"></path></g></symbol><symbol id="shield-red-big" xmlns="http://www.w3.org/2000/svg" width="28" height="34" viewBox="0 0 28 34"><g fill="none" fill-rule="evenodd"><path fill="#EB0000" d="M26.229 2.032c-1.06.137-2.12.183-3.18.183-2.738 0-5.387-.959-7.727-1.827a7.417 7.417 0 0 0-.927-.32 1.594 1.594 0 0 0-.927 0c-.31.092-.619.229-.928.32-2.34.868-4.99 1.827-7.727 1.827-1.06 0-2.164-.046-3.18-.183a1.521 1.521 0 0 0-1.147.366C.176 2.672 0 3.083 0 3.539v16.075c0 7.992 12.761 14.02 13.335 14.249.177.091.397.137.574.137.22 0 .398-.046.574-.137.53-.274 13.335-6.257 13.335-14.249V3.54c0-.41-.176-.822-.485-1.141a1.422 1.422 0 0 0-1.104-.366z"></path><path fill="#FFF" d="M19.457 20.575L15.58 16.7l3.875-3.877a1.134 1.134 0 0 0 .001-1.608l-.36-.361a1.118 1.118 0 0 0-.805-.335h-.002c-.304 0-.59.12-.803.334l-3.876 3.879-3.878-3.874a1.133 1.133 0 0 0-1.607-.002l-.36.357a1.134 1.134 0 0 0-.002 1.612l3.879 3.876-3.876 3.877a1.135 1.135 0 0 0-.001 1.61l.36.36a1.14 1.14 0 0 0 1.612 0l3.874-3.877 3.877 3.873a1.135 1.135 0 0 0 1.609.002l.36-.359c.217-.212.335-.501.335-.805a1.126 1.126 0 0 0-.332-.806h-.003z"></path></g></symbol><symbol id="breaking" xmlns="http://www.w3.org/2000/svg" width="22" height="22" viewBox="0 0 22 22"><path fill="none" fill-rule="evenodd" stroke="currentColor" stroke-width="2" d="M11.246 20.479v-6.603h-5.78c-.308 0-.617-.398-.385-.717l6.474-11.934c.308-.397.925-.238.925.24v7.239h5.01c.385 0 .616.398.462.795l-5.78 11.218c-.232.478-.926.319-.926-.238z"></path></symbol><symbol id="shield-red" xmlns="http://www.w3.org/2000/svg" width="18" height="22" viewBox="0 0 18 22"><g fill="none" fill-rule="evenodd"><path fill="#EB0000" d="M16.971 1.315c-.685.089-1.371.118-2.057.118-1.771 0-3.485-.62-5-1.182-.2-.088-.4-.147-.6-.207-.2-.059-.428-.059-.6 0-.2.06-.4.148-.6.207-1.514.562-3.228 1.182-5 1.182-.685 0-1.4-.03-2.057-.118a.984.984 0 0 0-.743.236.976.976 0 0 0-.314.74v10.4c0 5.172 8.257 9.072 8.629 9.22A.857.857 0 0 0 9 22a.77.77 0 0 0 .371-.089c.343-.177 8.629-4.048 8.629-9.22v-10.4c0-.267-.114-.533-.314-.74a.92.92 0 0 0-.715-.236z"></path><path fill="#FFF" d="M12.59 13.313l-2.509-2.507 2.507-2.508a.734.734 0 0 0 .001-1.041l-.232-.234a.724.724 0 0 0-.522-.217.73.73 0 0 0-.52.217l-2.509 2.51-2.509-2.507a.733.733 0 0 0-1.04-.002l-.233.231a.734.734 0 0 0-.001 1.043l2.51 2.509-2.508 2.508a.734.734 0 0 0 0 1.042l.232.233a.737.737 0 0 0 1.043 0l2.507-2.509 2.509 2.506a.734.734 0 0 0 1.041.001l.232-.232a.722.722 0 0 0 .218-.52.729.729 0 0 0-.215-.522h-.002z"></path></g></symbol><symbol id="shield-red-stroke" xmlns="http://www.w3.org/2000/svg" width="22" height="26" viewBox="0 0 22 26"><g fill="none" fill-rule="evenodd"><path fill="#EB0000" stroke="#FFF" stroke-linecap="round" stroke-linejoin="round" stroke-width="2" d="M18.843 2.323l.014-.001c.543-.063 1.082.117 1.548.534.376.39.595.903.595 1.434v10.402c0 2.702-1.788 5.154-4.714 7.38a26.308 26.308 0 0 1-2.982 1.951 27.873 27.873 0 0 1-1.474.777c-.259.134-.53.2-.83.2-.277 0-.576-.069-.741-.16-.893-.355-3.002-1.548-4.698-2.865C2.728 19.773 1 17.347 1 14.692V4.29c0-.573.23-1.114.65-1.487.412-.364.98-.544 1.54-.479.556.075 1.2.11 1.924.11 1.316 0 2.463-.309 4.716-1.142.055-.016.108-.034.237-.082.171-.063.252-.092.32-.11.377-.13.818-.13 1.21-.015.34.1.503.155.665.229 2.19.811 3.336 1.12 4.652 1.12.714 0 1.339-.034 1.93-.11z"></path><path fill="#FFF" d="M14.59 15.313l-2.509-2.507 2.507-2.508a.734.734 0 0 0 .001-1.041l-.232-.234a.724.724 0 0 0-.522-.217.73.73 0 0 0-.52.217l-2.509 2.51-2.509-2.507a.733.733 0 0 0-1.04-.002l-.233.231a.734.734 0 0 0-.001 1.043l2.51 2.509-2.508 2.508a.734.734 0 0 0 0 1.042l.232.233a.737.737 0 0 0 1.043 0l2.507-2.509 2.509 2.506a.734.734 0 0 0 1.041.001l.232-.232a.722.722 0 0 0 .218-.52.729.729 0 0 0-.215-.522h-.002z"></path></g></symbol><symbol id="shield-yellow-big" xmlns="http://www.w3.org/2000/svg" width="28" height="34" viewBox="0 0 28 34"><path fill="#FFBB4A" fill-rule="evenodd" d="M26.229 2.032c-1.06.137-2.12.183-3.18.183-2.738 0-5.387-.959-7.727-1.827a7.417 7.417 0 0 0-.927-.32 1.594 1.594 0 0 0-.927 0c-.31.092-.619.229-.928.32-2.34.868-4.99 1.827-7.727 1.827-1.06 0-2.164-.046-3.18-.183a1.521 1.521 0 0 0-1.147.366C.176 2.672 0 3.083 0 3.539v16.075c0 7.992 12.761 14.02 13.335 14.249.177.091.397.137.574.137.22 0 .398-.046.574-.137.53-.274 13.335-6.257 13.335-14.249V3.54c0-.41-.176-.822-.485-1.141a1.422 1.422 0 0 0-1.104-.366z"></path></symbol><symbol id="shield-yellow-stroke" xmlns="http://www.w3.org/2000/svg" width="22" height="26" viewBox="0 0 22 26"><path fill="#FFBB4A" fill-rule="evenodd" stroke="#FFF" stroke-linecap="round" stroke-linejoin="round" stroke-width="2" d="M18.843 2.323l.014-.001c.543-.063 1.082.117 1.548.534.376.39.595.903.595 1.434v10.402c0 2.702-1.788 5.154-4.714 7.38a26.308 26.308 0 0 1-2.982 1.951 27.873 27.873 0 0 1-1.474.777c-.259.134-.53.2-.83.2-.277 0-.576-.069-.741-.16-.893-.355-3.002-1.548-4.698-2.865C2.728 19.773 1 17.347 1 14.692V4.29c0-.573.23-1.114.65-1.487.412-.364.98-.544 1.54-.479.556.075 1.2.11 1.924.11 1.316 0 2.463-.309 4.716-1.142.055-.016.108-.034.237-.082.171-.063.252-.092.32-.11.377-.13.818-.13 1.21-.015.34.1.503.155.665.229 2.19.811 3.336 1.12 4.652 1.12.714 0 1.339-.034 1.93-.11z"></path></symbol><symbol id="sports" xmlns="http://www.w3.org/2000/svg" width="22" height="22" viewBox="0 0 22 22"><path fill="currentColor" fill-rule="evenodd" d="M8.76 11.959l-.624-.625-.048-.048c-.36-.36-.312-.912.048-1.273.36-.36.936-.312 1.272.048l.648.648.647-.648-.647-.648-.048-.048c-.36-.36-.312-.912.048-1.272s.936-.313 1.272.048l.648.648.312-.313c.36-.312.889-.312 1.224 0 .36.337.384.913.048 1.273l-.312.312.696.696c.36.36.312.913-.048 1.273-.36.36-.937.312-1.272-.048l-.648-.648-.648.648.696.696c.36.36.312.912-.048 1.273-.36.36-.937.312-1.273-.048l-.647-.648-.313.312a.912.912 0 0 1-1.295 0 .913.913 0 0 1 0-1.296l.312-.312zm7.392 4.153c-3.912 3.913-10.344 5.065-12.839 2.569-2.497-2.496-1.32-8.931 2.568-12.82C9.77 1.97 16.225.843 18.697 3.292c2.471 2.449 1.32 8.931-2.545 12.82zm1.273-11.524c-.6-.6-1.68-.865-2.977-.794v.265a3.623 3.623 0 0 0 3.745 3.506c.072-1.296-.168-2.377-.768-2.977zM7.177 7.133a12.186 12.186 0 0 0-3.072 5.474c2.88.072 5.232 2.4 5.328 5.306a12.107 12.107 0 0 0 5.448-3.073 12.15 12.15 0 0 0 3.048-5.474 5.426 5.426 0 0 1-5.28-5.282c-2.065.528-3.96 1.56-5.472 3.049zm-3.36 7.299c-.073 1.271.19 2.376.792 2.976.6.6 1.68.865 2.975.793v-.313a3.605 3.605 0 0 0-3.767-3.456z"></path></symbol><symbol id="shield-yellow" xmlns="http://www.w3.org/2000/svg" width="18" height="22" viewBox="0 0 18 22"><path fill="#FFBB4A" fill-rule="evenodd" d="M16.971 1.315c-.685.089-1.371.118-2.057.118-1.771 0-3.485-.62-5-1.182-.2-.088-.4-.147-.6-.207-.2-.059-.428-.059-.6 0-.2.06-.4.148-.6.207-1.514.562-3.228 1.182-5 1.182-.685 0-1.4-.03-2.057-.118a.984.984 0 0 0-.743.236.976.976 0 0 0-.314.74v10.4c0 5.172 8.257 9.072 8.629 9.22A.857.857 0 0 0 9 22a.77.77 0 0 0 .371-.089c.343-.177 8.629-4.048 8.629-9.22v-10.4c0-.267-.114-.533-.314-.74a.92.92 0 0 0-.715-.236z"></path></symbol><symbol id="technology" xmlns="http://www.w3.org/2000/svg" width="22" height="22" viewBox="0 0 22 22"><path fill="currentColor" fill-rule="evenodd" d="M20.004 12.268c.542 0 .996.455.996.995s-.456.996-.996.996h-2.047v1.479a2.222 2.222 0 0 1-2.22 2.219H14.26v2.047c0 .54-.456.996-.996.996s-.995-.456-.995-.996v-2.047h-1.536v2.047c0 .54-.455.996-.995.996s-.996-.456-.996-.996v-2.047H7.262a2.222 2.222 0 0 1-2.219-2.22V14.26H2.996c-.54 0-.996-.456-.996-.996s.456-.995.996-.995h2.047v-1.536H2.996c-.54 0-.996-.455-.996-.995s.456-.996.996-.996h2.047V7.262c0-1.223.996-2.219 2.22-2.219H8.74V2.996c0-.54.456-.996.996-.996s.995.456.995.996v2.047h1.536V2.996c0-.54.455-.996.995-.996s.996.456.996.996v2.047h1.479c1.223 0 2.219.996 2.219 2.22V8.74h2.047c.54 0 .996.456.996.996s-.456.995-.996.995h-2.047v1.536h2.047zm-4.038 3.47h.028V7.234a.225.225 0 0 0-.227-.227H7.262a.225.225 0 0 0-.228.227v8.505c0 .142.114.228.227.228h8.477a.225.225 0 0 0 .228-.227zM13.49 9.198c.17 0 .312.113.314.313v3.982a.316.316 0 0 1-.314.314H9.51a.316.316 0 0 1-.313-.314V9.51c0-.17.142-.313.313-.313h3.982z"></path></symbol><symbol id="shield-green-big" xmlns="http://www.w3.org/2000/svg" width="28" height="34" viewBox="0 0 28 34"><g fill="none" fill-rule="evenodd"><path fill="#53BB4A" d="M26.229 2.032c-1.06.137-2.12.183-3.18.183-2.738 0-5.387-.959-7.727-1.827a7.417 7.417 0 0 0-.927-.32 1.594 1.594 0 0 0-.927 0c-.31.092-.619.229-.928.32-2.34.868-4.99 1.827-7.727 1.827-1.06 0-2.164-.046-3.18-.183a1.521 1.521 0 0 0-1.147.366C.176 2.672 0 3.083 0 3.539v16.075c0 7.992 12.761 14.02 13.335 14.249.177.091.397.137.574.137.22 0 .398-.046.574-.137.53-.274 13.335-6.257 13.335-14.249V3.54c0-.41-.176-.822-.485-1.141a1.422 1.422 0 0 0-1.104-.366z"></path><path fill="#FFF" d="M19.577 10.52a1.689 1.689 0 0 0-1.176.533c-2.67 2.759-4.728 5.072-7.175 7.654l-2.487-2.169c-.344-.318-.8-.48-1.26-.448a1.693 1.693 0 0 0-1.19.62c-.3.365-.443.838-.397 1.313.044.475.275.911.637 1.207l3.708 3.235c.68.594 1.688.55 2.317-.101 3.077-3.18 5.264-5.715 8.271-8.821a1.803 1.803 0 0 0 .376-1.95 1.71 1.71 0 0 0-1.624-1.073z"></path></g></symbol><symbol id="trending" xmlns="http://www.w3.org/2000/svg" width="22" height="22" viewBox="0 0 22 22"><path fill="currentColor" fill-rule="evenodd" d="M19.868 11.167c-.356-1.906-1.452-3.761-3.339-5.717-.611-.636-1.274-1.245-1.912-1.83-.815-.736-1.58-1.448-2.293-2.236a1.18 1.18 0 0 0-.943-.381 1.188 1.188 0 0 0-.866.508c-1.147 1.753-1.173 4.243-.102 6.48.102.203.204.38.306.584.127.254.255.483.356.737.28.635.255 1.347-.05 1.88-.536.889-1.48.812-1.759.762-.586-.101-1.325-.483-1.53-1.321-.025-.127-.025-.28-.025-.458.05-.788.127-1.651.204-2.337.026-.432.077-.813.102-1.093.05-.534.076-.94-.383-1.245a.865.865 0 0 0-.892-.05c-.51.254-.892.635-1.248.99l-.051.05C2.793 9.16 2.23 13.454 4.092 16.706 5.569 19.323 8.526 21 11.508 21h.332c3.11-.127 6.066-2.11 7.365-4.904.74-1.55.969-3.304.663-4.93zM17.6 15.333c-1.044 2.21-3.389 3.786-5.836 3.888-2.447.102-4.92-1.245-6.117-3.38-1.274-2.236-1.07-5.208.433-7.292-.05.483-.076 1.017-.127 1.525-.026.355 0 .686.05.99.306 1.398 1.48 2.44 2.982 2.694 1.479.229 2.855-.38 3.569-1.625.611-1.043.688-2.338.153-3.507a6.557 6.557 0 0 0-.433-.839c-.102-.178-.178-.355-.28-.534-.664-1.347-.765-2.821-.383-3.99a54.802 54.802 0 0 0 1.758 1.678 39.92 39.92 0 0 1 1.835 1.753c1.63 1.678 2.575 3.253 2.854 4.802.307 1.246.129 2.618-.458 3.838z"></path></symbol><symbol id="travel" xmlns="http://www.w3.org/2000/svg" width="22" height="22" viewBox="0 0 22 22"><path fill="currentColor" fill-rule="evenodd" d="M6.047 18.363V6.91h-.96c-.807 0-1.451.655-1.451 1.462v8.531c0 .807.644 1.462 1.45 1.462h.961zm6.48-13.09v-.11a1.532 1.532 0 0 0-3.065 0v.11h3.065zm1.778 13.09V6.91H7.684v11.455h6.621zm4.058-1.461v-8.53a1.47 1.47 0 0 0-1.461-1.463h-.96v11.455h.96c.807 0 1.451-.655 1.461-1.462zM20 8.372v8.53A3.11 3.11 0 0 1 16.902 20H5.088A3.094 3.094 0 0 1 2 16.902v-8.53a3.094 3.094 0 0 1 3.088-3.1h2.738v-.109A3.168 3.168 0 0 1 11 2a3.165 3.165 0 0 1 3.163 3.163v.11h2.738A3.103 3.103 0 0 1 20 8.37z"></path></symbol><symbol id="twitter" xmlns="http://www.w3.org/2000/svg" width="21" height="17" viewBox="0 0 21 17"><path fill="currentColor" fill-rule="evenodd" d="M20.4 2.012a8.175 8.175 0 0 1-2.403.676 4.282 4.282 0 0 0 1.84-2.374 8.243 8.243 0 0 1-2.66 1.04A4.127 4.127 0 0 0 14.124 0C11.813 0 9.94 1.922 9.94 4.291c0 .337.035.663.107.978C6.57 5.089 3.486 3.383 1.42.783a4.37 4.37 0 0 0-.566 2.16 4.32 4.32 0 0 0 1.862 3.572A4.11 4.11 0 0 1 .819 5.98v.053c0 2.08 1.443 3.815 3.359 4.208-.351.1-.721.15-1.103.15-.27 0-.533-.025-.788-.076.533 1.705 2.078 2.946 3.91 2.98A8.264 8.264 0 0 1 0 15.072 11.653 11.653 0 0 0 6.416 17c7.699 0 11.908-6.538 11.908-12.21 0-.187-.004-.373-.011-.556A8.59 8.59 0 0 0 20.4 2.012"></path></symbol><symbol id="video" xmlns="http://www.w3.org/2000/svg" width="22" height="22" viewBox="0 0 22 22"><g fill="none" fill-rule="evenodd"><path stroke="currentColor" stroke-width="2" d="M3.81 4C2.807 4 2 4.832 2 5.867v10.266C2 17.168 2.807 18 3.81 18h14.38c1.003 0 1.81-.832 1.81-1.867V5.867C20 4.832 19.193 4 18.19 4H3.81z"></path><path fill="currentColor" d="M9 7l6 4-6 4z"></path></g></symbol></svg>