<svg xmlns="http://www.w3.org/2000/svg" width="22" height="22" viewBox="0 0 22 22">
    <path fill="currentColor" fill-rule="evenodd" d="M11 2c4.963 0 9 4.037 9 9s-4.037 9-9 9c-4.962 0-9-4.037-9-9s4.038-9 9-9zm0 16.168c3.953 0 7.168-3.216 7.168-7.168s-3.215-7.168-7.167-7.168c-3.954 0-7.17 3.216-7.17 7.168s3.218 7.168 7.17 7.168zm.027-9.817c-.627 0-1.158.4-1.156.873 0 .473.53.872 1.158.872.015 0 .03.003.045.005 1.602.048 2.89 1.24 2.89 2.7 0 1.185-.846 2.19-2.02 2.555v.646a.915.915 0 1 1-1.832 0v-.613c-1.23-.335-2.128-1.368-2.128-2.587a.915.915 0 1 1 1.831 0c0 .472.53.87 1.158.87.628 0 1.158-.398 1.158-.87 0-.474-.53-.873-1.158-.873-.015 0-.03-.003-.044-.004-1.603-.049-2.892-1.24-2.892-2.701 0-1.202.872-2.223 2.074-2.574v-.886a.915.915 0 1 1 1.832 0v.886c1.202.35 2.075 1.37 2.075 2.574a.915.915 0 1 1-1.832 0c0-.474-.531-.873-1.16-.873z"/>
</svg>
