<svg xmlns="http://www.w3.org/2000/svg" width="21" height="15" viewBox="0 0 21 15">
    <path fill="currentColor" fill-rule="evenodd" d="M7.585 8.32c.324.316.641.63 1.034.866.71.424 1.561.575 2.366.368.629-.16 1.232-.537 1.685-.996.071-.07.14-.142.212-.215l.192.196c.546.55 1.092 1.102 1.635 1.653.657.664 1.314 1.327 1.971 1.993l1.65 1.664c.022.025.046.047.07.072l.365.372c.145.15.291.298.442.444H.938l.455-.44c.002-.001.004-.001.004-.004l.222-.213.233-.226.004-.005 1.474-1.424 2.064-1.993A1092.963 1092.963 0 0 1 7.585 8.32zM20.148.943v12.853c-.149-.149-.295-.3-.444-.448l-.207-.209-.237-.24c-.467-.47-.933-.942-1.399-1.413-.657-.664-1.314-1.327-1.97-1.993l-1.718-1.735-.36-.366c.064-.064.126-.129.19-.195.79-.804 1.578-1.607 2.37-2.41l2.377-2.422.51-.52.005-.004.44-.447c.001-.002.004-.002.004-.004l.406-.413.033-.034zM0 .937L.062 1l.002.001.002.002v.002l.09.09c.045.045.09.087.138.132l.073.07.07.07.027.027.34.333.001.001.073.073.002.002.018.018.017.018.02.02c.373.363.748.727 1.12 1.091l.354.345.767.748 2.535 2.464.46.44.456.44c-.016.016-.03.031-.046.045l-.007.007-.027.026c-.044.045-.09.087-.135.132L4.7 9.253l-2.064 1.993-.329.318-.985.955c-.146.142-.293.284-.44.424 0 0 .002 0 .002.002H.878l-.004.002H.872l-.004.006-.002.002-.001.001c-.002.002-.005.005-.01.007 0 .002-.001.002-.004.002-.075.073-.15.147-.229.218a3.19 3.19 0 0 0-.078.075l-.049.046-.022.023-.026.028c-.045.043-.09.084-.135.129l-.115.11-.116.117c-.027.028-.053.055-.078.084L0 .937zM.95.002l.28.002h17.973l-.212.216-.215.22-.004.004c-.115.117-.23.232-.344.35a4.187 4.187 0 0 0-.087.09l-.005.004L16.5 2.757l-2.268 2.31-1.698 1.73a.577.577 0 0 0-.14.112.566.566 0 0 0-.093.128l-.469.478-.131.133c-.009.01-.016.018-.025.025l-.067.06c-.044.038-.088.076-.135.113l-.084.062c-.15.105-.31.197-.48.276-.146.055-.3.099-.454.126a2.278 2.278 0 0 1-.426 0 2.546 2.546 0 0 1-.462-.13c-.026-.01-.053-.024-.078-.036l-.078-.04a1.84 1.84 0 0 1-.15-.087 1.687 1.687 0 0 1-.145-.096c-.017-.01-.033-.025-.05-.036a2.722 2.722 0 0 1-.231-.211c-.078-.078-.158-.153-.238-.23l-.433-.42c-.005-.007-.01-.013-.013-.022-.005-.007-.01-.01-.014-.018a.056.056 0 0 1-.01-.016l-.016-.02a.055.055 0 0 0-.016-.015l-.014-.014-.013-.013a.877.877 0 0 0-.11-.084C7.61 6.48 7.26 6.14 6.91 5.8L4.42 3.379A1844.68 1844.68 0 0 0 1.915.946l-.031-.03a.31.31 0 0 0-.031-.03l-.01-.003C1.8.836 1.754.789 1.707.743L1.704.737C1.703.736 1.703.733 1.7.73 1.651.68 1.602.635 1.554.587L1.552.585 1.545.578 1.52.552 1.5.534 1.483.517 1.448.48l-.02-.018-.022-.022C1.386.424 1.37.404 1.348.386 1.347.382 1.341.38 1.34.377L1.293.33 1.155.197C1.093.137 1.03.077.968.02L.951.002zM19.208 0v.004h-.004L19.207 0z"/>
</svg>
