<svg xmlns="http://www.w3.org/2000/svg" width="22" height="22" viewBox="0 0 22 22">
    <g fill="currentColor" fill-rule="evenodd">
        <path d="M10.322 2.835c-.33-.735-1.13-.358-1.882.489-1.271 1.429-5.179 1.67-6.675 1-1.487-.667-1.476.528-1.476.528.092 12.928 7.553 11.88 7.553 11.88 7.379-2.591 2.48-13.897 2.48-13.897zM2.687 9.089c.158-.956 1.071-1.153 1.071-1.153 1.24-.4 1.661.828 1.661.828-.535 1.503-2.732.325-2.732.325zm4.678 5.178c-1.975.461-3.28-1.718-3.28-1.718 3.406 1.488 5.484-1.1 5.484-1.1s-.23 2.357-2.204 2.818zm-.257-5.715S6.903 7.27 8.185 7.04c0 0 .896-.256 1.487.513-.001 0-1.385 2.078-2.564 1z"/>
        <path d="M7.334 8.491c.014.094.001.019 0-.03a1.633 1.633 0 0 1 .007-.282c.005-.062-.005.018.002-.02.01-.051.019-.105.033-.157.014-.054.033-.111.054-.162-.02.045.009-.02.018-.036l.05-.09c.013-.023.03-.047.046-.07-.026.033.03-.038.04-.045a1.08 1.08 0 0 1 .137-.125 1.14 1.14 0 0 1 .413-.181c.064-.017.13-.028.195-.043.008-.001.017-.001.024-.004.047-.011-.047.004-.014.002l.066-.008c.06-.005.124-.007.186-.005.141.005.282.03.426.093.198.084.356.226.488.393a9.792 9.792 0 0 0-.038-.284c-.011.017-.023.033-.036.049-.01.019-.026.036-.04.053-.007.012-.016.021-.023.033-.037.052.012-.01-.009.012a5.4 5.4 0 0 1-.362.412 2.738 2.738 0 0 1-.648.497 5.104 5.104 0 0 0-.116.054c.024-.009.005-.001-.007.002a2.149 2.149 0 0 1-.162.052c-.026.008-.052.011-.077.017a.903.903 0 0 0-.05.008 1.282 1.282 0 0 1-.19 0c-.029-.002.002 0 .007.001-.019-.001-.037-.007-.056-.01a.9.9 0 0 1-.102-.03c-.042-.013-.03-.009-.056-.02a1.008 1.008 0 0 1-.267-.177c-.226-.202-.56.13-.331.332.235.211.51.35.83.376.273.02.544-.061.786-.18.428-.215.79-.57 1.09-.937.08-.099.158-.198.228-.303.064-.094.026-.204-.038-.284-.412-.526-1.078-.711-1.716-.575-.353.076-.687.224-.917.509a1.59 1.59 0 0 0-.33.811c-.019.16-.019.32.005.48.019.124.177.196.29.165.132-.042.185-.168.164-.293zM7.3 14.041c-.647.149-1.265-.017-1.811-.372a3.62 3.62 0 0 1-.626-.52 4.209 4.209 0 0 1-.247-.27c-.033-.038-.064-.077-.096-.118-.004-.007-.049-.064-.026-.033l-.03-.042a4.228 4.228 0 0 1-.177-.254l-.322.322c1.106.478 2.325.65 3.494.305a5.011 5.011 0 0 0 1.974-1.13c.106-.1.212-.2.303-.313-.133-.057-.268-.111-.402-.168l-.002.014c.002.005-.002.014-.002.019 0 .02.011-.077.004-.028l-.028.17c-.037.192-.09.383-.152.569a3.122 3.122 0 0 1-.31.68 2.6 2.6 0 0 1-.566.682 2.36 2.36 0 0 1-.977.487c-.294.07-.17.525.124.454.724-.174 1.325-.626 1.733-1.245a4.248 4.248 0 0 0 .644-1.802c.019-.196-.277-.322-.403-.167a4.215 4.215 0 0 1-.499.485l-.077.063c-.017.012-.051.04-.014.012-.017.01-.033.026-.049.037a4.478 4.478 0 0 1-1.224.66c-.456.16-.903.236-1.378.236a4.968 4.968 0 0 1-1.958-.428c-.099-.042-.204-.042-.284.038a.241.241 0 0 0-.038.284c.168.277.382.534.605.767.45.468 1.007.866 1.64 1.037.426.118.87.12 1.3.02.3-.065.174-.519-.122-.451zM2.913 9.15c.03-.179.085-.337.184-.49a.796.796 0 0 1 .115-.143l.077-.075c.015-.011.029-.026.046-.037.03-.027-.005.001.014-.012.094-.07.197-.13.306-.177.035-.017-.043.014.011-.004a.895.895 0 0 1 .129-.042c.263-.076.497-.109.736-.029.014.005.028.01.042.017.04.014-.047-.024.017.007.027.012.052.027.077.04l.083.052.043.03c-.027-.019-.005-.005.009.007.042.038.083.076.122.116.021.024.043.047.061.07.008.01.015.02.024.029-.024-.03-.01-.011.005.01.053.08.105.16.146.246l.02.045c.027.054-.011-.033-.004-.014.001.011.009.02.01.033v-.124a.83.83 0 0 1-.4.48c-.02.011-.044.02-.065.033-.033.014.033-.012-.002 0l-.04.014a1.127 1.127 0 0 1-.174.045c-.01.002-.075.011-.053.01l-.054.004c-.061.005-.124.005-.186.005a3.218 3.218 0 0 1-.165-.01c-.01 0-.096-.01-.047-.004a3.237 3.237 0 0 1-.426-.092 3.256 3.256 0 0 1-.303-.1c-.046-.016-.09-.032-.134-.051a2.042 2.042 0 0 0-.054-.02c-.066-.027.005.001-.02-.01a3.59 3.59 0 0 1-.26-.123c-.265-.143-.506.264-.236.407.31.168.654.294.997.38.573.14 1.238.161 1.706-.253.115-.103.214-.235.282-.375.057-.112.122-.237.085-.365a1.58 1.58 0 0 0-.283-.491 1.507 1.507 0 0 0-.675-.494c-.325-.116-.667-.075-.99.017-.624.177-1.116.666-1.229 1.316-.02.124.033.254.165.29.113.027.266-.041.288-.168z"/>
        <path d="M10.524 2.715c-.124-.268-.348-.466-.647-.5-.285-.036-.573.089-.807.24-.315.199-.574.462-.826.735-.16.172-.287.269-.478.391-.857.541-1.947.753-2.954.833a9.62 9.62 0 0 1-1.622-.002c-.402-.038-.835-.105-1.242-.262a2.039 2.039 0 0 0-.054-.02c.054.02-.02-.01-.03-.014-.092-.04-.183-.08-.28-.113a2.178 2.178 0 0 0-.438-.104 1.063 1.063 0 0 0-.626.099c-.254.134-.406.41-.452.687-.018.113-.017.216-.017.331.005.372.015.744.033 1.113.033.66.087 1.322.17 1.978.141 1.1.353 2.191.698 3.245.268.815.61 1.61 1.062 2.34a7.86 7.86 0 0 0 1.28 1.59c.41.384.866.72 1.36.986.41.22.845.395 1.291.516.35.094.71.158 1.073.188.22.019.438.024.657.011.331-.018.63-.169.927-.31a5.772 5.772 0 0 0 2.073-1.61c.517-.649.887-1.4 1.118-2.197.233-.802.334-1.645.348-2.48a14.998 14.998 0 0 0-.18-2.515 20.846 20.846 0 0 0-.467-2.235 24.86 24.86 0 0 0-.531-1.751c-.116-.331-.236-.66-.37-.986-.017-.063-.044-.124-.069-.184-.049-.118-.221-.143-.322-.085-.12.07-.133.205-.085.322.021.05-.004-.011-.009-.019l.042.102a24.121 24.121 0 0 1 .621 1.758c.2.651.377 1.313.518 1.979.08.376.15.757.21 1.138.035.226.048.337.074.551.024.2.046.403.059.602.064.807.066 1.622-.033 2.424-.002.026-.008.052-.01.075.005-.045-.001.024-.004.036-.008.052-.014.102-.024.152-.017.096-.033.193-.052.292-.037.196-.082.39-.136.582a7.02 7.02 0 0 1-.179.565 5.963 5.963 0 0 1-.814 1.497 5.705 5.705 0 0 1-.384.438 4.895 4.895 0 0 1-.684.59 6.236 6.236 0 0 1-1.487.774c-.137.048.047.007-.005.01a4.721 4.721 0 0 1-.4.02c-.122 0-.247-.008-.369-.017a3.455 3.455 0 0 1-.273-.029c-.056-.007.064.01-.007 0-.043-.007-.083-.01-.125-.018a6.002 6.002 0 0 1-1.12-.302l-.15-.058-.017-.007a5.903 5.903 0 0 1-1.293-.76c-.002-.003.03.025-.005-.006-.017-.011-.03-.026-.047-.037a6.675 6.675 0 0 1-.953-.937c-.054-.064-.106-.13-.159-.196a.403.403 0 0 1-.045-.061c-.026-.035-.052-.067-.077-.103a8.042 8.042 0 0 1-.296-.435 9.626 9.626 0 0 1-.793-1.553 12.352 12.352 0 0 1-.235-.63c-.16-.468-.292-.944-.405-1.424A21.043 21.043 0 0 1 .57 6.408a26.3 26.3 0 0 1-.042-1.054c-.005-.183-.017-.367-.005-.55 0-.015.01-.071.002-.02a1.326 1.326 0 0 1 .053-.186c.002-.004-.027.05 0 .005.007-.011.011-.023.019-.036.014-.028.033-.053.049-.077-.04.059.02-.019.037-.036l.033-.028c-.04.033-.007.008.014-.007.014-.008.028-.014.043-.024.03-.019-.038.01.01-.005.043-.01.08-.023.125-.03.036-.007-.04.002-.002 0l.03-.002.066-.001a.83.83 0 0 1 .083.004c.045.002.019 0 .066.01.259.049.485.164.73.252.418.15.87.22 1.31.259a9.679 9.679 0 0 0 3.226-.254 5.827 5.827 0 0 0 1.429-.546c.197-.111.386-.24.555-.388.233-.202.42-.45.659-.648.193-.161.43-.337.687-.365-.033.005.04 0 .049 0 .011 0 .066.005.052.002a.24.24 0 0 1 .096.038c.03.017.053.036.092.084.019.024.06.104.084.151.054.116.22.143.322.085.116-.072.137-.21.083-.326z"/>
        <path d="M9.778 17.235a6.977 6.977 0 0 0 1.214 2.028c.38.435.826.814 1.308 1.13.322.208.664.378 1.021.519.292.117.608.117.921.12a6.234 6.234 0 0 0 2.872-.664c.77-.39 1.452-.97 2-1.633a9.948 9.948 0 0 0 1.395-2.264 16.01 16.01 0 0 0 .883-2.513c.19-.724.337-1.463.447-2.204.092-.62.168-1.24.215-1.864.019-.261.033-.525.042-.785.008-.25-.007-.51-.099-.746-.117-.306-.3-.566-.588-.736a1.536 1.536 0 0 0-.918-.188c-.456.045-.856.19-1.278.372l.17-.07a3.212 3.212 0 0 1-.807.208c.064-.01.124-.017.188-.026-.547.073-1.105.047-1.654-.027l.188.027a9.018 9.018 0 0 1-2.287-.62l.17.071a6.162 6.162 0 0 1-.885-.452c-.059-.037-.118-.075-.177-.117l-.087-.064a1.182 1.182 0 0 0 .041.033 2.274 2.274 0 0 1-.284-.272c-.246-.274-.75-.27-.997 0a.72.72 0 0 0 0 .998c.282.315.65.565 1.016.772.452.252.937.452 1.426.613.47.159.952.278 1.44.358a8.317 8.317 0 0 0 1.617.127c.301-.011.604-.045.899-.103.282-.057.538-.156.802-.269l-.17.071c.26-.108.525-.202.805-.243l-.188.027c.11-.015.22-.02.331-.005l-.188-.027c.068.01.136.027.2.052l-.17-.07c.04.017.077.04.116.06.08.048-.168-.145-.083-.063.011.011.026.023.038.037.047.046.06.123-.068-.092.01.017.023.03.033.047.02.033.037.068.051.104l-.07-.17c.033.08.054.162.066.25l-.027-.188c.027.186.01.38 0 .569a21.707 21.707 0 0 1-.17 1.852l.025-.188a19.89 19.89 0 0 1-.793 3.567c-.12.365-.252.723-.4 1.078l.07-.17a10.165 10.165 0 0 1-1.2 2.134c-.01.017-.026.03-.037.047l.061-.08c-.028.038-.058.074-.086.111a6.102 6.102 0 0 1-.35.397 5.753 5.753 0 0 1-.584.54l-.054.042c-.084.066.066-.052.08-.061-.037.026-.073.056-.11.083a5.381 5.381 0 0 1-1.044.593l.17-.07c-.431.18-.883.3-1.344.364.064-.01.124-.017.188-.026a6.546 6.546 0 0 1-1.391.028c.064.01.124.017.188.026a2.134 2.134 0 0 1-.261-.098l.169.07a5.156 5.156 0 0 1-1.002-.572l-.076-.056a14.266 14.266 0 0 1-.118-.096 5.688 5.688 0 0 1-.73-.747c-.01-.018-.025-.034-.036-.05-.029-.037-.057-.077-.085-.115a6.06 6.06 0 0 1-.621-1.125l.07.17-.056-.142c-.07-.177-.153-.322-.325-.42a.71.71 0 0 0-.544-.071c-.171.053-.337.16-.42.324-.085.157-.142.368-.074.543z"/>
        <path d="M12.623 11.312c.518-.777 1.395-.586 1.395-.586 1.247.141 1.13 1.386 1.13 1.386-1.063 1.108-2.525-.8-2.525-.8z"/>
        <path d="M12.825 11.432a1.126 1.126 0 0 1 .767-.478c.015-.002.029-.002.043-.005a1.364 1.364 0 0 1 .286.002c.054.005.014-.005-.008-.002.012-.002.029.005.04.008.152.023.325.058.442.117a.785.785 0 0 1 .306.25c-.026-.033-.005-.005 0 .002.017.026.036.049.05.077a.996.996 0 0 1 .037.068c.007.011.011.023.017.036.023.045.002 0 .007.014.038.094.064.193.083.293.01.045.008.05.005.02l.007.067c.002.036.005.073.005.108 0 .036 0 .07-.002.104.024-.057.047-.111.068-.168a.988.988 0 0 1-.284.212.52.52 0 0 1-.111.04c-.027.007-.052.01-.078.018-.051.012.002.005-.049.008a2.212 2.212 0 0 1-.158 0c-.051-.002 0 .002-.037-.005a1.06 1.06 0 0 1-.242-.066c-.066-.023-.052-.017-.116-.049a2.279 2.279 0 0 1-.294-.171 2.228 2.228 0 0 1-.237-.179 4.426 4.426 0 0 1-.533-.538c-.024-.03-.087-.111-.017-.02-.078-.1-.203-.154-.322-.084-.1.059-.162.221-.085.322.228.3.499.563.798.79.447.341 1.05.614 1.608.391.227-.092.55-.273.562-.544a1.772 1.772 0 0 0-.056-.497 1.499 1.499 0 0 0-.365-.666 1.313 1.313 0 0 0-.377-.264 1.613 1.613 0 0 0-.235-.089c-.042-.011-.087-.024-.13-.03-.02-.005-.04-.008-.061-.011a1.387 1.387 0 0 1-.124-.02 1.768 1.768 0 0 0-.596.011c-.426.078-.78.338-1.021.69-.074.105-.019.262.085.322.118.067.252.02.322-.084zM11.927 16.366c.018-.03 1.334-2.057 3.207-1.56 1.887.498 2.042 2.776 2.042 2.776s-1.924-2.55-5.25-1.216z"/>
        <path d="M12.13 16.486l.046-.064c.017-.02.03-.045.047-.065l.028-.038c.036-.047-.028.036.012-.017a4.92 4.92 0 0 1 .43-.475c.41-.394.9-.716 1.47-.829.608-.12 1.301.08 1.764.476.108.094.208.195.3.306.068.082.151.197.222.318.068.115.132.233.186.355.03.068.02.046.052.123a3.894 3.894 0 0 1 .224.805c.008.035.011.07.017.105.01.061-.005-.042-.002-.011.002.01.002.026.005.037l.007.07c.146-.039.292-.08.438-.117-.256-.339-.588-.62-.932-.866a4.583 4.583 0 0 0-2.534-.851c-.7-.017-1.4.136-2.05.393-.117.047-.199.158-.164.29.03.113.171.212.29.165 1.002-.398 2.075-.51 3.094-.172a4.38 4.38 0 0 1 1.219.65l.045.033c.021.017-.009-.008-.01-.01.009.008.018.014.027.02l.087.071c.099.083.193.168.282.256.07.068.14.142.203.217.023.028.108.136.035.04.064.084.156.139.266.108.094-.027.179-.125.171-.226-.058-.843-.423-1.74-1.028-2.33-.522-.51-1.266-.804-1.997-.754-.694.049-1.318.379-1.837.823a4.349 4.349 0 0 0-.824.924c-.157.26.25.494.412.24zM16.714 12.597s.328-1.206 1.544-.9c0 0 .89.131 1.101 1.04.003-.001-2.035 1.272-2.645-.14z"/>
        <path d="M16.943 12.658c.008-.029.019-.057.028-.085l.014-.038c-.028.076-.007.014.002-.004.02-.04.038-.078.059-.116a.952.952 0 0 1 .075-.12l.036-.049c-.02.024.004-.007.011-.011l.03-.036a1.438 1.438 0 0 1 .16-.15c-.033.026-.005.004.002 0 .03-.021.058-.04.09-.057a.577.577 0 0 1 .139-.061c.035-.011.067-.02.103-.028.045-.01.068-.012.09-.014.146-.01.274.007.416.037.045.01.09.02.133.033.04.012.08.028.12.043.049.018-.027-.015.036.014.03.014.058.028.086.045.28.152.476.397.557.742.036-.09.074-.177.109-.266a2.5 2.5 0 0 1-.196.108c-.07.038-.143.074-.217.106a1.6 1.6 0 0 1-.15.065l-.077.03a3.105 3.105 0 0 1-.628.17 1.93 1.93 0 0 1-.306.01c-.03-.001-.058-.004-.087-.007.043.005-.02-.005-.035-.008-.054-.009-.106-.026-.159-.042l-.039-.014c.03.011 0 0-.014-.008-.027-.014-.052-.026-.077-.042a1.04 1.04 0 0 1-.059-.038l-.064-.056a.688.688 0 0 1-.103-.12 1.476 1.476 0 0 1-.116-.214c-.052-.116-.221-.143-.322-.085-.12.07-.136.204-.085.322.238.537.753.807 1.328.781.475-.023.936-.193 1.36-.403.094-.047.19-.096.28-.152a.24.24 0 0 0 .108-.266 1.636 1.636 0 0 0-1.247-1.2c-.318-.067-.642-.094-.95.029-.29.115-.518.32-.688.579-.089.136-.169.293-.211.453-.076.292.378.417.458.123z"/>
    </g>
</svg>
