<svg id="Layer_1" enable-background="new 0 0 512 512" height="512" viewBox="0 0 512 512" width="512" xmlns="http://www.w3.org/2000/svg"><g><path d="m488.792 178.372-41.059-41.052v-90.187c0-26.047-21.058-47.133-47.133-47.133h-289.2c-26.488 0-47.133 21.573-47.133 47.133v90.187l-41.051 41.051c-14.971 14.971-23.216 34.872-23.216 56.036v230.46c0 25.641 20.74 47.133 47.133 47.133h417.733c26.433 0 47.134-21.53 47.134-47.133v-230.46c0-21.17-8.242-41.07-23.208-56.035zm-41.059 1.37 19.846 19.842c8.815 8.816 13.876 20.389 14.379 32.777l-34.225 25.096zm-353.466-132.609c0-9.242 7.457-17.133 17.133-17.133h289.2c9.546 0 17.133 7.733 17.133 17.133v232.326l-132.598 97.235c-17.428 12.779-40.845 12.779-58.271 0l-132.597-97.235zm-49.838 152.451 19.837-19.838v77.711l-34.225-25.096c.503-12.383 5.567-23.956 14.388-32.777zm437.571 265.283c0 9.307-7.529 17.133-17.133 17.133h-417.734c-9.601 0-17.133-7.831-17.133-17.133v-195.333l179.124 131.354c28.038 20.561 65.714 20.561 93.752 0l179.124-131.354z"/><path d="m314.799 205.22c-5.862-5.855-15.36-5.848-21.213.014-9.878 9.89-23.577 15.563-37.587 15.563-14.009 0-27.708-5.672-37.586-15.563-5.855-5.863-15.352-5.868-21.213-.014s-5.868 15.352-.014 21.213c15.463 15.483 36.899 24.363 58.813 24.363s43.351-8.88 58.813-24.363c5.855-5.861 5.848-15.359-.013-21.213z"/><circle cx="223.866" cy="159.6" r="15"/><circle cx="288.133" cy="159.6" r="15"/><path d="m383.467 191.733c0-70.285-57.182-127.467-127.467-127.467s-127.467 57.182-127.467 127.467 57.182 127.467 127.467 127.467 127.467-57.181 127.467-127.467zm-224.934 0c0-53.743 43.724-97.467 97.467-97.467s97.467 43.724 97.467 97.467-43.724 97.467-97.467 97.467-97.467-43.723-97.467-97.467z"/></g></svg>