<svg xmlns="http://www.w3.org/2000/svg" width="22" height="22" viewBox="0 0 22 22">
    <path fill="currentColor" fill-rule="evenodd" d="M20.15 3.818c-1.179-1.159-2.793-1.726-4.536-1.586-1.34.104-2.681.634-3.773 1.477C10.48 2.574 9.184 2 7.98 2c-1.695 0-3.277.64-4.468 1.812a6.107 6.107 0 0 0-1.844 4.393c0 .415.044.848.118 1.215H0v1.708h2.402a5.913 5.913 0 0 0 1.11 1.477l.02.018 7.707 7.145a.88.88 0 0 0 1.192 0l7.707-7.145.019-.018A6.107 6.107 0 0 0 22 8.212a6.113 6.113 0 0 0-1.85-4.393zm-1.222 7.567l-7.094 6.583-7.105-6.583c-.081-.08-.162-.19-.236-.25h1.874a.868.868 0 0 0 .776-.464l.372-.726.739 2.172c.105.311.378.53.713.573a.87.87 0 0 0 .838-.372l1.043-1.55h.477l1.297 2.978a.867.867 0 0 0 .801.519h.037a.857.857 0 0 0 .788-.586l1.366-4.015.645 1.055c.155.257.44.415.745.415h2.16c-.087.061-.15.171-.236.25zm1.16-1.96h-2.594L16.129 7.2a.87.87 0 0 0-.838-.409.862.862 0 0 0-.726.58l-1.235 3.636-.62-1.427a.862.862 0 0 0-.801-.513h-1.52a.875.875 0 0 0-.727.378l-.323.476-.831-2.44a.867.867 0 0 0-.757-.58.879.879 0 0 0-.838.464l-1.08 2.062H3.568A4.289 4.289 0 0 1 3.4 8.212c0-1.208.472-2.337 1.335-3.185a4.582 4.582 0 0 1 3.239-1.312c.906 0 2.03.61 3.252 1.757a.876.876 0 0 0 1.21-.012c1.676-1.63 4.63-2.258 6.485-.433a4.428 4.428 0 0 1 1.334 3.185c0 .42-.05.848-.167 1.214z"/>
</svg>
