<svg xmlns="http://www.w3.org/2000/svg" width="22" height="22" viewBox="0 0 22 22">
    <path fill="currentColor" fill-rule="evenodd" d="M10.966 2C15.925 2 20 6.008 20 10.966 20 15.924 15.925 20 10.966 20 6.008 20 2 15.925 2 10.966A8.958 8.958 0 0 1 10.966 2zm1.698 1.562c.815 1.223 1.427 2.513 1.766 3.804h3.26c-1.018-1.97-2.852-3.328-5.026-3.804zm5.638 5.163H14.77c.068.543.136 1.154.136 1.766 0 .883-.136 1.834-.272 2.785h3.669c.203-.747.34-1.494.34-2.31 0-.747-.137-1.562-.34-2.241h-.001zm-.611 5.91h-3.464a19.188 19.188 0 0 1-1.767 3.87 7.828 7.828 0 0 0 5.23-3.87zm-8.15 3.87c-.816-1.357-1.427-2.648-1.767-3.87H4.31c1.019 1.97 2.989 3.396 5.23 3.87zm-5.842-5.229h3.668a13.32 13.32 0 0 1-.272-2.785c0-.611.069-1.223.136-1.766H3.7a8.127 8.127 0 0 0-.34 2.241c0 .815.137 1.563.34 2.31zm.61-5.91h3.193c.408-1.29 1.019-2.58 1.766-3.804-2.106.476-3.94 1.834-4.958 3.804zm4.62 0h4.075c-.408-1.358-1.087-2.65-2.038-3.871A15.12 15.12 0 0 0 8.93 7.366zm4.414 1.359H8.59a14.288 14.288 0 0 0-.136 1.766c0 .883.068 1.834.34 2.785h4.415c.203-.95.34-1.902.34-2.785 0-.611-.069-1.223-.205-1.766zm-.543 5.91H9.2c.408 1.154 1.019 2.377 1.766 3.668.815-1.29 1.427-2.513 1.834-3.669z"/>
</svg>
