<svg width="35" height="35" viewBox="0 0 35 35" fill="none" xmlns="http://www.w3.org/2000/svg">
<path d="M26.25 0H8.75C3.91751 0 0 3.91751 0 8.75V26.25C0 31.0825 3.91751 35 8.75 35H26.25C31.0825 35 35 31.0825 35 26.25V8.75C35 3.91751 31.0825 0 26.25 0Z" fill="#0FA7E6"/>
<path d="M17.5108 4.46631C24.7156 4.46631 30.5553 10.3069 30.5553 17.5107C30.5553 24.7154 24.7156 30.5551 17.5108 30.5551C10.3069 30.5551 4.46631 24.7154 4.46631 17.5107C4.46631 10.3069 10.3069 4.46631 17.5108 4.46631ZM17.5108 9.48353C15.3818 9.48353 13.3401 10.3292 11.8347 11.8346C10.3293 13.34 9.48356 15.3818 9.48356 17.5107C9.48356 19.6397 10.3293 21.6814 11.8347 23.1868C13.3401 24.6922 15.3818 25.5379 17.5108 25.5379C19.6398 25.5379 21.6815 24.6922 23.1869 23.1868C24.6923 21.6814 25.5381 19.6397 25.5381 17.5107C25.5381 15.3818 24.6923 13.34 23.1869 11.8346C21.6815 10.3292 19.6398 9.48353 17.5108 9.48353Z" fill="white"/>
<g opacity="0.905">
<path opacity="0.905" d="M17.7038 7.24268C23.4814 7.24268 28.1653 11.9265 28.1653 17.7032C28.1653 23.4808 23.4814 28.1646 17.7038 28.1646C11.927 28.1646 7.24316 23.4808 7.24316 17.7032C7.24316 11.9265 11.927 7.24268 17.7038 7.24268ZM17.5375 9.56753C16.4909 9.56753 15.4544 9.77369 14.4874 10.1742C13.5204 10.5748 12.6417 11.1619 11.9016 11.902C11.1615 12.6421 10.5744 13.5207 10.1739 14.4877C9.77332 15.4547 9.56716 16.4912 9.56716 17.5378C9.56716 18.5845 9.77332 19.6209 10.1739 20.5879C10.5744 21.5549 11.1615 22.4336 11.9016 23.1737C12.6417 23.9138 13.5204 24.5009 14.4874 24.9014C15.4544 25.302 16.4909 25.5081 17.5375 25.5081C19.6514 25.5081 21.6787 24.6684 23.1734 23.1737C24.6682 21.679 25.5079 19.6517 25.5079 17.5378C25.5079 15.424 24.6682 13.3967 23.1734 11.902C21.6787 10.4073 19.6514 9.56753 17.5375 9.56753Z" fill="url(#paint0_linear)"/>
<g opacity="0.905" filter="url(#filter0_i)">
<path d="M17.7038 7.24268C23.4814 7.24268 28.1653 11.9265 28.1653 17.7032C28.1653 23.4808 23.4814 28.1646 17.7038 28.1646C11.927 28.1646 7.24316 23.4808 7.24316 17.7032C7.24316 11.9265 11.927 7.24268 17.7038 7.24268ZM17.5375 9.56753C16.4909 9.56753 15.4544 9.77369 14.4874 10.1742C13.5204 10.5748 12.6417 11.1619 11.9016 11.902C11.1615 12.6421 10.5744 13.5207 10.1739 14.4877C9.77332 15.4547 9.56716 16.4912 9.56716 17.5378C9.56716 18.5845 9.77332 19.6209 10.1739 20.5879C10.5744 21.5549 11.1615 22.4336 11.9016 23.1737C12.6417 23.9138 13.5204 24.5009 14.4874 24.9014C15.4544 25.302 16.4909 25.5081 17.5375 25.5081C19.6514 25.5081 21.6787 24.6684 23.1734 23.1737C24.6682 21.679 25.5079 19.6517 25.5079 17.5378C25.5079 15.424 24.6682 13.3967 23.1734 11.902C21.6787 10.4073 19.6514 9.56753 17.5375 9.56753Z" fill="url(#paint1_linear)"/>
</g>
</g>
<defs>
<filter id="filter0_i" x="7.24316" y="7.24268" width="20.9221" height="20.9219" filterUnits="userSpaceOnUse" color-interpolation-filters="sRGB">
<feFlood flood-opacity="0" result="BackgroundImageFix"/>
<feBlend mode="normal" in="SourceGraphic" in2="BackgroundImageFix" result="shape"/>
<feColorMatrix in="SourceAlpha" type="matrix" values="0 0 0 0 0 0 0 0 0 0 0 0 0 0 0 0 0 0 127 0" result="hardAlpha"/>
<feOffset/>
<feGaussianBlur stdDeviation="1"/>
<feComposite in2="hardAlpha" operator="arithmetic" k2="-1" k3="1"/>
<feColorMatrix type="matrix" values="0 0 0 0 0 0 0 0 0 0 0 0 0 0 0 0 0 0 0.130718 0"/>
<feBlend mode="normal" in2="shape" result="effect1_innerShadow"/>
</filter>
<linearGradient id="paint0_linear" x1="7.24316" y1="17.7036" x2="28.1653" y2="17.7036" gradientUnits="userSpaceOnUse">
<stop stop-color="#FF0000"/>
<stop offset="1" stop-color="#00BAFF"/>
</linearGradient>
<linearGradient id="paint1_linear" x1="7.43741" y1="17.4993" x2="27.9999" y2="17.4993" gradientUnits="userSpaceOnUse">
<stop stop-color="#FF0000"/>
<stop offset="1" stop-color="#0FA7E6"/>
</linearGradient>
</defs>
</svg>
