<svg xmlns="http://www.w3.org/2000/svg" width="18" height="22" viewBox="0 0 18 22">
    <g fill="none" fill-rule="evenodd">
        <path fill="#EB0000" d="M16.971 1.315c-.685.089-1.371.118-2.057.118-1.771 0-3.485-.62-5-1.182-.2-.088-.4-.147-.6-.207-.2-.059-.428-.059-.6 0-.2.06-.4.148-.6.207-1.514.562-3.228 1.182-5 1.182-.685 0-1.4-.03-2.057-.118a.984.984 0 0 0-.743.236.976.976 0 0 0-.314.74v10.4c0 5.172 8.257 9.072 8.629 9.22A.857.857 0 0 0 9 22a.77.77 0 0 0 .371-.089c.343-.177 8.629-4.048 8.629-9.22v-10.4c0-.267-.114-.533-.314-.74a.92.92 0 0 0-.715-.236z"/>
        <path fill="#FFF" d="M12.59 13.313l-2.509-2.507 2.507-2.508a.734.734 0 0 0 .001-1.041l-.232-.234a.724.724 0 0 0-.522-.217.73.73 0 0 0-.52.217l-2.509 2.51-2.509-2.507a.733.733 0 0 0-1.04-.002l-.233.231a.734.734 0 0 0-.001 1.043l2.51 2.509-2.508 2.508a.734.734 0 0 0 0 1.042l.232.233a.737.737 0 0 0 1.043 0l2.507-2.509 2.509 2.506a.734.734 0 0 0 1.041.001l.232-.232a.722.722 0 0 0 .218-.52.729.729 0 0 0-.215-.522h-.002z"/>
    </g>
</svg>
