<svg xmlns="http://www.w3.org/2000/svg" width="22" height="26" viewBox="0 0 22 26">
    <g fill="none" fill-rule="evenodd">
        <path fill="#53BB4A" stroke="#FFF" stroke-linecap="round" stroke-linejoin="round" stroke-width="2" d="M18.843 2.323l.014-.001c.543-.063 1.082.117 1.548.534.376.39.595.903.595 1.434v10.402c0 2.702-1.788 5.154-4.714 7.38a26.308 26.308 0 0 1-2.982 1.951 27.873 27.873 0 0 1-1.474.777c-.259.134-.53.2-.83.2-.277 0-.576-.069-.741-.16-.893-.355-3.002-1.548-4.698-2.865C2.728 19.773 1 17.347 1 14.692V4.29c0-.573.23-1.114.65-1.487.412-.364.98-.544 1.54-.479.556.075 1.2.11 1.924.11 1.316 0 2.463-.309 4.716-1.142.055-.016.108-.034.237-.082.171-.063.252-.092.32-.11.377-.13.818-.13 1.21-.015.34.1.503.155.665.229 2.19.811 3.336 1.12 4.652 1.12.714 0 1.339-.034 1.93-.11z"/>
        <path fill="#FFF" d="M14.668 8.807c-.288.009-.561.132-.762.345-1.728 1.785-3.059 3.282-4.642 4.952l-1.61-1.403a1.091 1.091 0 0 0-.815-.29c-.299.021-.577.166-.77.402a1.162 1.162 0 0 0-.257.85c.03.306.178.588.413.78l2.399 2.093c.44.384 1.092.356 1.5-.065 1.99-2.057 3.405-3.698 5.351-5.708.325-.329.422-.83.243-1.262a1.106 1.106 0 0 0-1.05-.694z"/>
    </g>
</svg>
