<svg xmlns="http://www.w3.org/2000/svg" width="18" height="22" viewBox="0 0 18 22">
    <path fill="#FFBB4A" fill-rule="evenodd" d="M16.971 1.315c-.685.089-1.371.118-2.057.118-1.771 0-3.485-.62-5-1.182-.2-.088-.4-.147-.6-.207-.2-.059-.428-.059-.6 0-.2.06-.4.148-.6.207-1.514.562-3.228 1.182-5 1.182-.685 0-1.4-.03-2.057-.118a.984.984 0 0 0-.743.236.976.976 0 0 0-.314.74v10.4c0 5.172 8.257 9.072 8.629 9.22A.857.857 0 0 0 9 22a.77.77 0 0 0 .371-.089c.343-.177 8.629-4.048 8.629-9.22v-10.4c0-.267-.114-.533-.314-.74a.92.92 0 0 0-.715-.236z"/>
</svg>
