<svg xmlns="http://www.w3.org/2000/svg" width="18" height="22" viewBox="0 0 18 22">
    <g fill="none" fill-rule="evenodd">
        <path fill="#53BB4A" d="M16.971 1.315c-.685.089-1.371.118-2.057.118-1.771 0-3.485-.62-5-1.182-.2-.088-.4-.147-.6-.207-.2-.059-.428-.059-.6 0-.2.06-.4.148-.6.207-1.514.562-3.228 1.182-5 1.182-.685 0-1.4-.03-2.057-.118a.984.984 0 0 0-.743.236.976.976 0 0 0-.314.74v10.4c0 5.172 8.257 9.072 8.629 9.22A.857.857 0 0 0 9 22a.77.77 0 0 0 .371-.089c.343-.177 8.629-4.048 8.629-9.22v-10.4c0-.267-.114-.533-.314-.74a.92.92 0 0 0-.715-.236z"/>
        <path fill="#FFF" d="M12.668 6.807c-.288.009-.561.132-.762.345-1.728 1.785-3.059 3.282-4.642 4.952l-1.61-1.403a1.091 1.091 0 0 0-.815-.29c-.299.021-.577.166-.77.402a1.162 1.162 0 0 0-.257.85c.03.306.178.588.413.78l2.399 2.093c.44.384 1.092.356 1.5-.065 1.99-2.057 3.405-3.698 5.351-5.708.325-.329.422-.83.243-1.262a1.106 1.106 0 0 0-1.05-.694z"/>
    </g>
</svg>
