<svg xmlns="http://www.w3.org/2000/svg" width="22" height="26" viewBox="0 0 22 26">
    <g fill="none" fill-rule="evenodd">
        <path fill="#EB0000" stroke="#FFF" stroke-linecap="round" stroke-linejoin="round" stroke-width="2" d="M18.843 2.323l.014-.001c.543-.063 1.082.117 1.548.534.376.39.595.903.595 1.434v10.402c0 2.702-1.788 5.154-4.714 7.38a26.308 26.308 0 0 1-2.982 1.951 27.873 27.873 0 0 1-1.474.777c-.259.134-.53.2-.83.2-.277 0-.576-.069-.741-.16-.893-.355-3.002-1.548-4.698-2.865C2.728 19.773 1 17.347 1 14.692V4.29c0-.573.23-1.114.65-1.487.412-.364.98-.544 1.54-.479.556.075 1.2.11 1.924.11 1.316 0 2.463-.309 4.716-1.142.055-.016.108-.034.237-.082.171-.063.252-.092.32-.11.377-.13.818-.13 1.21-.015.34.1.503.155.665.229 2.19.811 3.336 1.12 4.652 1.12.714 0 1.339-.034 1.93-.11z"/>
        <path fill="#FFF" d="M14.59 15.313l-2.509-2.507 2.507-2.508a.734.734 0 0 0 .001-1.041l-.232-.234a.724.724 0 0 0-.522-.217.73.73 0 0 0-.52.217l-2.509 2.51-2.509-2.507a.733.733 0 0 0-1.04-.002l-.233.231a.734.734 0 0 0-.001 1.043l2.51 2.509-2.508 2.508a.734.734 0 0 0 0 1.042l.232.233a.737.737 0 0 0 1.043 0l2.507-2.509 2.509 2.506a.734.734 0 0 0 1.041.001l.232-.232a.722.722 0 0 0 .218-.52.729.729 0 0 0-.215-.522h-.002z"/>
    </g>
</svg>
