<svg xmlns="http://www.w3.org/2000/svg" width="28" height="34" viewBox="0 0 28 34">
    <g fill="none" fill-rule="evenodd">
        <path fill="#53BB4A" d="M26.229 2.032c-1.06.137-2.12.183-3.18.183-2.738 0-5.387-.959-7.727-1.827a7.417 7.417 0 0 0-.927-.32 1.594 1.594 0 0 0-.927 0c-.31.092-.619.229-.928.32-2.34.868-4.99 1.827-7.727 1.827-1.06 0-2.164-.046-3.18-.183a1.521 1.521 0 0 0-1.147.366C.176 2.672 0 3.083 0 3.539v16.075c0 7.992 12.761 14.02 13.335 14.249.177.091.397.137.574.137.22 0 .398-.046.574-.137.53-.274 13.335-6.257 13.335-14.249V3.54c0-.41-.176-.822-.485-1.141a1.422 1.422 0 0 0-1.104-.366z"/>
        <path fill="#FFF" d="M19.577 10.52a1.689 1.689 0 0 0-1.176.533c-2.67 2.759-4.728 5.072-7.175 7.654l-2.487-2.169c-.344-.318-.8-.48-1.26-.448a1.693 1.693 0 0 0-1.19.62c-.3.365-.443.838-.397 1.313.044.475.275.911.637 1.207l3.708 3.235c.68.594 1.688.55 2.317-.101 3.077-3.18 5.264-5.715 8.271-8.821a1.803 1.803 0 0 0 .376-1.95 1.71 1.71 0 0 0-1.624-1.073z"/>
    </g>
</svg>
