<svg xmlns="http://www.w3.org/2000/svg" width="28" height="34" viewBox="0 0 28 34">
    <g fill="none" fill-rule="evenodd">
        <path fill="#EB0000" d="M26.229 2.032c-1.06.137-2.12.183-3.18.183-2.738 0-5.387-.959-7.727-1.827a7.417 7.417 0 0 0-.927-.32 1.594 1.594 0 0 0-.927 0c-.31.092-.619.229-.928.32-2.34.868-4.99 1.827-7.727 1.827-1.06 0-2.164-.046-3.18-.183a1.521 1.521 0 0 0-1.147.366C.176 2.672 0 3.083 0 3.539v16.075c0 7.992 12.761 14.02 13.335 14.249.177.091.397.137.574.137.22 0 .398-.046.574-.137.53-.274 13.335-6.257 13.335-14.249V3.54c0-.41-.176-.822-.485-1.141a1.422 1.422 0 0 0-1.104-.366z"/>
        <path fill="#FFF" d="M19.457 20.575L15.58 16.7l3.875-3.877a1.134 1.134 0 0 0 .001-1.608l-.36-.361a1.118 1.118 0 0 0-.805-.335h-.002c-.304 0-.59.12-.803.334l-3.876 3.879-3.878-3.874a1.133 1.133 0 0 0-1.607-.002l-.36.357a1.134 1.134 0 0 0-.002 1.612l3.879 3.876-3.876 3.877a1.135 1.135 0 0 0-.001 1.61l.36.36a1.14 1.14 0 0 0 1.612 0l3.874-3.877 3.877 3.873a1.135 1.135 0 0 0 1.609.002l.36-.359c.217-.212.335-.501.335-.805a1.126 1.126 0 0 0-.332-.806h-.003z"/>
    </g>
</svg>
