<svg xmlns="http://www.w3.org/2000/svg" width="22" height="22" viewBox="0 0 22 22">
    <path fill="currentColor" fill-rule="evenodd" d="M8.76 11.959l-.624-.625-.048-.048c-.36-.36-.312-.912.048-1.273.36-.36.936-.312 1.272.048l.648.648.647-.648-.647-.648-.048-.048c-.36-.36-.312-.912.048-1.272s.936-.313 1.272.048l.648.648.312-.313c.36-.312.889-.312 1.224 0 .36.337.384.913.048 1.273l-.312.312.696.696c.36.36.312.913-.048 1.273-.36.36-.937.312-1.272-.048l-.648-.648-.648.648.696.696c.36.36.312.912-.048 1.273-.36.36-.937.312-1.273-.048l-.647-.648-.313.312a.912.912 0 0 1-1.295 0 .913.913 0 0 1 0-1.296l.312-.312zm7.392 4.153c-3.912 3.913-10.344 5.065-12.839 2.569-2.497-2.496-1.32-8.931 2.568-12.82C9.77 1.97 16.225.843 18.697 3.292c2.471 2.449 1.32 8.931-2.545 12.82zm1.273-11.524c-.6-.6-1.68-.865-2.977-.794v.265a3.623 3.623 0 0 0 3.745 3.506c.072-1.296-.168-2.377-.768-2.977zM7.177 7.133a12.186 12.186 0 0 0-3.072 5.474c2.88.072 5.232 2.4 5.328 5.306a12.107 12.107 0 0 0 5.448-3.073 12.15 12.15 0 0 0 3.048-5.474 5.426 5.426 0 0 1-5.28-5.282c-2.065.528-3.96 1.56-5.472 3.049zm-3.36 7.299c-.073 1.271.19 2.376.792 2.976.6.6 1.68.865 2.975.793v-.313a3.605 3.605 0 0 0-3.767-3.456z"/>
</svg>
