<svg xmlns="http://www.w3.org/2000/svg" width="22" height="22" viewBox="0 0 22 22">
    <path fill="currentColor" fill-rule="evenodd" d="M20.004 12.268c.542 0 .996.455.996.995s-.456.996-.996.996h-2.047v1.479a2.222 2.222 0 0 1-2.22 2.219H14.26v2.047c0 .54-.456.996-.996.996s-.995-.456-.995-.996v-2.047h-1.536v2.047c0 .54-.455.996-.995.996s-.996-.456-.996-.996v-2.047H7.262a2.222 2.222 0 0 1-2.219-2.22V14.26H2.996c-.54 0-.996-.456-.996-.996s.456-.995.996-.995h2.047v-1.536H2.996c-.54 0-.996-.455-.996-.995s.456-.996.996-.996h2.047V7.262c0-1.223.996-2.219 2.22-2.219H8.74V2.996c0-.54.456-.996.996-.996s.995.456.995.996v2.047h1.536V2.996c0-.54.455-.996.995-.996s.996.456.996.996v2.047h1.479c1.223 0 2.219.996 2.219 2.22V8.74h2.047c.54 0 .996.456.996.996s-.456.995-.996.995h-2.047v1.536h2.047zm-4.038 3.47h.028V7.234a.225.225 0 0 0-.227-.227H7.262a.225.225 0 0 0-.228.227v8.505c0 .142.114.228.227.228h8.477a.225.225 0 0 0 .228-.227zM13.49 9.198c.17 0 .312.113.314.313v3.982a.316.316 0 0 1-.314.314H9.51a.316.316 0 0 1-.313-.314V9.51c0-.17.142-.313.313-.313h3.982z"/>
</svg>
