<svg xmlns="http://www.w3.org/2000/svg" width="22" height="22" viewBox="0 0 22 22">
    <path fill="currentColor" fill-rule="evenodd" d="M6.047 18.363V6.91h-.96c-.807 0-1.451.655-1.451 1.462v8.531c0 .807.644 1.462 1.45 1.462h.961zm6.48-13.09v-.11a1.532 1.532 0 0 0-3.065 0v.11h3.065zm1.778 13.09V6.91H7.684v11.455h6.621zm4.058-1.461v-8.53a1.47 1.47 0 0 0-1.461-1.463h-.96v11.455h.96c.807 0 1.451-.655 1.461-1.462zM20 8.372v8.53A3.11 3.11 0 0 1 16.902 20H5.088A3.094 3.094 0 0 1 2 16.902v-8.53a3.094 3.094 0 0 1 3.088-3.1h2.738v-.109A3.168 3.168 0 0 1 11 2a3.165 3.165 0 0 1 3.163 3.163v.11h2.738A3.103 3.103 0 0 1 20 8.37z"/>
</svg>
