<svg xmlns="http://www.w3.org/2000/svg" width="22" height="22" viewBox="0 0 22 22">
    <path fill="currentColor" fill-rule="evenodd" d="M19.868 11.167c-.356-1.906-1.452-3.761-3.339-5.717-.611-.636-1.274-1.245-1.912-1.83-.815-.736-1.58-1.448-2.293-2.236a1.18 1.18 0 0 0-.943-.381 1.188 1.188 0 0 0-.866.508c-1.147 1.753-1.173 4.243-.102 6.48.102.203.204.38.306.584.127.254.255.483.356.737.28.635.255 1.347-.05 1.88-.536.889-1.48.812-1.759.762-.586-.101-1.325-.483-1.53-1.321-.025-.127-.025-.28-.025-.458.05-.788.127-1.651.204-2.337.026-.432.077-.813.102-1.093.05-.534.076-.94-.383-1.245a.865.865 0 0 0-.892-.05c-.51.254-.892.635-1.248.99l-.051.05C2.793 9.16 2.23 13.454 4.092 16.706 5.569 19.323 8.526 21 11.508 21h.332c3.11-.127 6.066-2.11 7.365-4.904.74-1.55.969-3.304.663-4.93zM17.6 15.333c-1.044 2.21-3.389 3.786-5.836 3.888-2.447.102-4.92-1.245-6.117-3.38-1.274-2.236-1.07-5.208.433-7.292-.05.483-.076 1.017-.127 1.525-.026.355 0 .686.05.99.306 1.398 1.48 2.44 2.982 2.694 1.479.229 2.855-.38 3.569-1.625.611-1.043.688-2.338.153-3.507a6.557 6.557 0 0 0-.433-.839c-.102-.178-.178-.355-.28-.534-.664-1.347-.765-2.821-.383-3.99a54.802 54.802 0 0 0 1.758 1.678 39.92 39.92 0 0 1 1.835 1.753c1.63 1.678 2.575 3.253 2.854 4.802.307 1.246.129 2.618-.458 3.838z"/>
</svg>
